<svg xmlns="http://www.w3.org/2000/svg" xmlns:xlink="http://www.w3.org/1999/xlink" width="50" zoomAndPan="magnify" viewBox="0 0 37.5 37.499999" height="50" preserveAspectRatio="xMidYMid meet" version="1.0"><defs><clipPath id="8a2585a346"><path d="M 4.859375 4.140625 L 32 4.140625 L 32 33.007812 L 4.859375 33.007812 Z M 4.859375 4.140625 " clip-rule="nonzero"/></clipPath><clipPath id="d23c7e1734"><path d="M 7 4.140625 L 30 4.140625 L 30 16 L 7 16 Z M 7 4.140625 " clip-rule="nonzero"/></clipPath></defs><g clip-path="url(#8a2585a346)"><path fill="#000000" d="M 5.359375 18.695312 C 5.355469 18.710938 5.355469 18.722656 5.355469 18.738281 C 5.308594 20.246094 5.117188 21.789062 4.917969 23.28125 C 4.902344 23.398438 4.945312 23.476562 5.019531 23.523438 C 5.03125 23.550781 5.046875 23.574219 5.070312 23.597656 C 5.953125 24.441406 6.628906 25.449219 7.609375 26.191406 C 8.714844 27.03125 9.683594 27.710938 10.351562 28.96875 C 10.855469 29.910156 11.753906 30.476562 12.523438 31.171875 C 13.304688 31.886719 13.925781 32.667969 14.980469 32.941406 C 15.027344 32.980469 15.089844 33.007812 15.164062 33.007812 C 16.492188 33.019531 17.777344 32.234375 18.957031 31.710938 C 20.613281 30.984375 22.195312 30.28125 23.917969 29.734375 C 25.242188 29.3125 26.171875 28.5625 27.207031 27.667969 C 28.378906 26.660156 29.984375 26.121094 31.410156 25.59375 C 31.457031 25.574219 31.496094 25.546875 31.527344 25.515625 C 31.613281 25.46875 31.683594 25.386719 31.695312 25.265625 C 31.820312 24.203125 31.640625 23.152344 31.640625 22.085938 C 31.644531 21.097656 32.121094 20.28125 31.964844 19.324219 C 32.21875 18.539062 30.972656 17.902344 30.335938 17.539062 C 30.347656 17.140625 30.355469 16.742188 30.355469 16.332031 C 30.355469 15.980469 30.386719 15.613281 30.402344 15.246094 C 30.421875 15.125 30.425781 15.007812 30.429688 14.894531 C 30.425781 14.78125 30.417969 14.675781 30.410156 14.570312 C 30.398438 14.273438 30.355469 13.984375 30.265625 13.703125 C 30.273438 13.679688 30.285156 13.652344 30.285156 13.625 C 30.460938 12.035156 29.703125 10.421875 29.152344 8.960938 C 28.84375 8.144531 28.417969 7.382812 28.121094 6.558594 C 27.863281 5.835938 27.742188 5.160156 27.289062 4.519531 C 27.226562 4.433594 27.144531 4.394531 27.058594 4.390625 C 27.027344 4.378906 26.996094 4.371094 26.960938 4.371094 C 25.027344 4.328125 23.101562 4.148438 21.171875 4.238281 C 20.289062 4.28125 19.492188 4.507812 18.636719 4.699219 C 17.679688 4.917969 16.542969 4.769531 15.5625 4.777344 C 13.699219 4.789062 11.867188 5.011719 10.011719 5.121094 C 9.042969 5.175781 7.808594 5.144531 7.089844 5.90625 C 7.046875 5.949219 7.023438 5.996094 7.011719 6.042969 C 6.976562 6.078125 6.949219 6.113281 6.929688 6.160156 C 6.921875 6.175781 6.914062 6.191406 6.910156 6.207031 C 6.488281 7.546875 6.554688 8.984375 6.628906 10.371094 C 6.714844 11.929688 6.859375 13.488281 6.976562 15.042969 C 7.03125 15.789062 7.074219 16.554688 7.175781 17.308594 C 6.503906 17.554688 6.085938 18.046875 5.503906 18.441406 C 5.40625 18.507812 5.363281 18.597656 5.359375 18.695312 " fill-opacity="1" fill-rule="nonzero"/><path fill="#000000" d="M 8.101562 20.910156 C 7.867188 20.324219 7.78125 19.628906 7.578125 19.070312 C 7.445312 18.695312 7.351562 18.308594 7.273438 17.917969 C 6.820312 18.105469 6.472656 18.445312 6.09375 18.753906 C 6.730469 19.496094 7.375 20.25 8.101562 20.910156 Z M 8.785156 15.8125 C 8.726562 15.757812 8.671875 15.695312 8.621094 15.625 C 8.582031 15.574219 8.566406 15.527344 8.5625 15.480469 C 8.5625 15.472656 8.558594 15.464844 8.554688 15.457031 C 8.214844 13.734375 8.050781 11.984375 7.632812 10.285156 C 7.46875 9.609375 7.625 8.980469 7.539062 8.308594 C 7.496094 7.984375 7.378906 7.679688 7.253906 7.382812 C 6.886719 9.605469 7.378906 12.097656 7.523438 14.277344 C 7.613281 15.550781 7.578125 17.058594 7.953125 18.285156 C 8.105469 18.769531 8.351562 19.246094 8.460938 19.742188 C 8.515625 20.003906 8.554688 20.300781 8.636719 20.574219 C 8.792969 18.996094 8.503906 17.390625 8.785156 15.8125 Z M 15.878906 26.066406 C 15.855469 26.046875 15.832031 26.023438 15.8125 25.992188 C 15.53125 25.5625 14.699219 25.488281 14.253906 25.308594 C 13.902344 25.164062 13.605469 24.941406 13.300781 24.71875 C 12.410156 24.082031 11.417969 23.675781 10.441406 23.203125 C 8.609375 22.316406 7.238281 20.96875 5.925781 19.476562 C 5.851562 20.71875 5.695312 21.976562 5.53125 23.199219 C 6.507812 24.144531 7.261719 25.210938 8.378906 26.015625 C 9.109375 26.542969 9.894531 27.074219 10.394531 27.835938 C 11.0625 28.855469 11.605469 29.621094 12.554688 30.402344 C 13.34375 31.050781 13.953125 31.933594 14.917969 32.289062 C 15.324219 31.222656 15.621094 30.222656 15.464844 29.054688 C 15.316406 27.925781 15.742188 27.117188 15.878906 26.066406 Z M 27.257812 21.117188 C 26.671875 21.125 26.074219 21.109375 25.472656 21.132812 C 23.523438 21.210938 21.667969 21.851562 19.710938 21.839844 C 16.367188 21.824219 12.886719 22.589844 9.5625 22.011719 C 10.21875 22.417969 10.910156 22.75 11.632812 23.089844 C 12.214844 23.363281 12.816406 23.632812 13.34375 24.007812 C 13.75 24.300781 14.160156 24.660156 14.640625 24.816406 C 15.25 25.015625 15.828125 25.066406 16.230469 25.546875 C 16.265625 25.546875 16.300781 25.554688 16.328125 25.5625 C 16.648438 25.449219 16.949219 25.304688 17.246094 25.15625 C 17.113281 25.015625 16.972656 24.867188 16.824219 24.734375 C 16.71875 24.640625 16.597656 24.574219 16.464844 24.511719 C 16.394531 24.484375 16.324219 24.460938 16.253906 24.4375 C 16.171875 24.414062 16.089844 24.394531 16.003906 24.375 C 15.597656 24.285156 15.195312 24.144531 14.863281 23.996094 C 14.523438 23.851562 14.234375 23.707031 13.984375 23.597656 C 13.5 23.371094 13.167969 23.265625 13.183594 23.214844 C 13.195312 23.171875 13.535156 23.195312 14.070312 23.371094 C 14.339844 23.457031 14.644531 23.578125 14.980469 23.707031 C 15.320312 23.835938 15.675781 23.953125 16.089844 24.042969 C 16.171875 24.0625 16.253906 24.085938 16.335938 24.105469 C 16.425781 24.136719 16.511719 24.167969 16.597656 24.203125 C 16.761719 24.28125 16.917969 24.378906 17.039062 24.496094 C 17.230469 24.679688 17.375 24.859375 17.511719 25.019531 C 17.808594 24.867188 18.105469 24.714844 18.410156 24.578125 C 19.066406 24.289062 19.757812 24.054688 20.425781 23.78125 C 21.566406 23.316406 22.789062 23.054688 23.949219 22.65625 C 23.90625 22.660156 23.859375 22.664062 23.816406 22.667969 C 23.746094 22.675781 23.675781 22.679688 23.605469 22.6875 C 23.34375 22.707031 23.0625 22.75 22.773438 22.785156 C 22.625 22.804688 22.480469 22.820312 22.335938 22.839844 C 22.195312 22.851562 22.054688 22.859375 21.917969 22.871094 C 21.648438 22.890625 21.382812 22.90625 21.136719 22.921875 C 20.644531 22.984375 20.199219 23.054688 19.828125 23.136719 C 19.082031 23.28125 18.613281 23.363281 18.601562 23.316406 C 18.59375 23.269531 19.035156 23.105469 19.773438 22.898438 C 20.140625 22.789062 20.59375 22.691406 21.097656 22.613281 C 21.351562 22.589844 21.617188 22.5625 21.894531 22.539062 C 22.03125 22.527344 22.171875 22.515625 22.3125 22.503906 C 22.449219 22.484375 22.589844 22.464844 22.730469 22.445312 C 23.019531 22.410156 23.300781 22.367188 23.585938 22.355469 C 23.722656 22.34375 23.855469 22.332031 23.984375 22.324219 C 24.046875 22.316406 24.117188 22.316406 24.175781 22.304688 C 24.234375 22.292969 24.292969 22.277344 24.351562 22.265625 C 24.808594 22.164062 25.230469 21.976562 25.585938 21.835938 C 25.878906 21.71875 26.132812 21.632812 26.332031 21.582031 C 26.640625 21.425781 26.949219 21.269531 27.257812 21.117188 Z M 29.699219 13.347656 C 29.71875 12.894531 29.652344 12.484375 29.542969 12.070312 C 29.394531 12.0625 29.242188 12.070312 29.128906 12.125 C 29.113281 12.136719 29.105469 12.132812 29.082031 12.152344 C 29.0625 12.167969 29.03125 12.183594 29.023438 12.191406 C 29.011719 12.207031 29 12.210938 28.988281 12.25 C 28.976562 12.28125 28.964844 12.335938 28.945312 12.394531 C 28.929688 12.457031 28.890625 12.546875 28.8125 12.617188 L 28.796875 12.628906 L 28.78125 12.636719 C 28.601562 12.722656 28.421875 12.695312 28.320312 12.703125 C 28.207031 12.707031 28.082031 12.742188 27.957031 12.785156 C 27.738281 12.863281 27.53125 12.976562 27.304688 13.074219 C 27.257812 13.097656 27.1875 13.121094 27.125 13.144531 C 27.0625 13.171875 27.011719 13.175781 26.957031 13.195312 C 26.804688 13.226562 26.683594 13.214844 26.570312 13.199219 C 26.339844 13.171875 26.15625 13.125 25.972656 13.109375 C 25.789062 13.113281 25.613281 13.121094 25.457031 13.125 C 25.136719 13.125 24.871094 13.152344 24.6875 13.152344 C 24.503906 13.152344 24.398438 13.144531 24.398438 13.121094 C 24.398438 13.09375 24.492188 13.058594 24.671875 13.019531 C 24.851562 12.980469 25.105469 12.917969 25.433594 12.886719 C 25.519531 12.875 25.601562 12.863281 25.691406 12.855469 C 25.738281 12.851562 25.785156 12.84375 25.832031 12.839844 L 25.902344 12.832031 L 25.933594 12.828125 L 25.953125 12.828125 L 25.96875 12.824219 L 25.984375 12.828125 C 26.1875 12.828125 26.40625 12.871094 26.601562 12.890625 C 26.699219 12.898438 26.804688 12.894531 26.871094 12.878906 C 26.921875 12.863281 26.988281 12.851562 27.03125 12.832031 C 27.074219 12.808594 27.117188 12.796875 27.171875 12.769531 C 27.375 12.675781 27.59375 12.554688 27.84375 12.464844 C 27.988281 12.414062 28.136719 12.375 28.296875 12.363281 C 28.449219 12.363281 28.546875 12.367188 28.613281 12.347656 C 28.617188 12.335938 28.625 12.324219 28.632812 12.296875 C 28.648438 12.253906 28.660156 12.199219 28.6875 12.132812 C 28.710938 12.066406 28.765625 11.984375 28.839844 11.933594 C 28.871094 11.910156 28.886719 11.902344 28.910156 11.886719 C 28.925781 11.875 28.972656 11.855469 29 11.84375 C 29.167969 11.777344 29.320312 11.769531 29.460938 11.777344 C 29.398438 11.578125 29.332031 11.378906 29.261719 11.167969 C 28.964844 10.304688 28.722656 9.421875 28.339844 8.59375 C 28.105469 8.074219 27.84375 7.558594 27.644531 7.023438 C 27.621094 7.023438 27.59375 7.023438 27.5625 7.03125 C 27.480469 7.0625 27.386719 7.136719 27.3125 7.234375 C 27.257812 7.304688 27.21875 7.394531 27.210938 7.457031 L 27.179688 7.671875 L 26.988281 7.597656 C 26.75 7.511719 26.53125 7.441406 26.332031 7.390625 C 26.128906 7.339844 25.949219 7.324219 25.792969 7.320312 C 25.5 7.3125 25.289062 7.363281 25.28125 7.316406 C 25.273438 7.292969 25.316406 7.257812 25.398438 7.21875 C 25.472656 7.171875 25.605469 7.128906 25.777344 7.097656 C 25.949219 7.070312 26.160156 7.066406 26.382812 7.101562 C 26.558594 7.125 26.742188 7.171875 26.929688 7.226562 C 26.960938 7.15625 26.996094 7.09375 27.042969 7.03125 C 27.144531 6.890625 27.285156 6.769531 27.46875 6.710938 C 27.488281 6.707031 27.507812 6.703125 27.53125 6.699219 C 27.347656 6.09375 27.195312 5.507812 26.859375 4.972656 C 26.199219 4.957031 25.539062 4.921875 24.875 4.886719 C 24.859375 4.886719 24.84375 4.890625 24.828125 4.890625 C 24.785156 4.902344 24.730469 4.910156 24.679688 4.925781 C 24.261719 5.042969 23.796875 5.234375 23.378906 5.507812 C 23.238281 5.601562 23.109375 5.699219 23.003906 5.8125 C 22.898438 5.925781 22.816406 6.042969 22.792969 6.15625 L 22.761719 6.304688 L 22.625 6.292969 C 21.824219 6.222656 21.140625 6.214844 20.679688 6.347656 C 20.449219 6.40625 20.273438 6.484375 20.160156 6.546875 C 20.042969 6.613281 19.976562 6.648438 19.964844 6.632812 C 19.949219 6.617188 19.992188 6.554688 20.09375 6.457031 C 20.199219 6.359375 20.371094 6.242188 20.617188 6.148438 C 21.074219 5.960938 21.761719 5.921875 22.511719 5.957031 C 22.566406 5.8125 22.660156 5.6875 22.757812 5.582031 C 22.886719 5.441406 23.035156 5.324219 23.191406 5.222656 C 23.433594 5.066406 23.679688 4.941406 23.929688 4.839844 C 23.007812 4.796875 22.089844 4.78125 21.171875 4.84375 C 20.226562 4.910156 19.367188 5.203125 18.4375 5.335938 C 17.753906 5.433594 17.03125 5.378906 16.34375 5.378906 C 15.328125 5.382812 14.308594 5.398438 13.292969 5.449219 C 13.25 5.460938 13.214844 5.476562 13.175781 5.488281 C 13.082031 5.515625 12.992188 5.546875 12.898438 5.578125 L 12.828125 5.601562 L 12.808594 5.609375 C 12.804688 5.609375 12.800781 5.609375 12.800781 5.613281 L 12.765625 5.625 L 12.632812 5.683594 C 12.398438 5.785156 12.203125 5.914062 12.039062 6.066406 L 12.027344 6.078125 C 11.996094 6.105469 11.984375 6.117188 11.964844 6.195312 C 11.953125 6.230469 11.9375 6.277344 11.902344 6.335938 C 11.886719 6.367188 11.851562 6.40625 11.835938 6.417969 L 11.816406 6.433594 L 11.804688 6.441406 L 11.800781 6.445312 L 11.773438 6.460938 L 11.773438 6.464844 C 11.695312 6.5 11.617188 6.535156 11.542969 6.558594 C 11.46875 6.574219 11.394531 6.59375 11.324219 6.605469 C 11.046875 6.640625 10.816406 6.632812 10.628906 6.648438 C 10.539062 6.652344 10.449219 6.65625 10.386719 6.671875 C 10.316406 6.683594 10.253906 6.6875 10.203125 6.710938 C 10.101562 6.742188 10.042969 6.75 10.035156 6.734375 C 10.023438 6.71875 10.066406 6.675781 10.152344 6.609375 C 10.234375 6.550781 10.410156 6.480469 10.601562 6.441406 C 10.796875 6.394531 11.039062 6.378906 11.277344 6.328125 C 11.335938 6.3125 11.390625 6.292969 11.449219 6.277344 C 11.503906 6.253906 11.554688 6.226562 11.605469 6.203125 L 11.613281 6.199219 L 11.632812 6.179688 C 11.644531 6.167969 11.636719 6.167969 11.636719 6.167969 C 11.636719 6.164062 11.648438 6.136719 11.65625 6.105469 C 11.671875 6.03125 11.726562 5.898438 11.816406 5.828125 C 11.933594 5.710938 12.070312 5.605469 12.21875 5.515625 C 11.792969 5.546875 11.367188 5.589844 10.945312 5.636719 C 9.925781 5.757812 8.292969 5.527344 7.523438 6.324219 C 7.597656 6.621094 7.71875 6.902344 7.835938 7.179688 C 7.882812 7.246094 7.929688 7.308594 7.980469 7.378906 C 8.0625 7.488281 8.15625 7.636719 8.226562 7.769531 C 8.261719 7.839844 8.300781 7.90625 8.339844 7.980469 C 8.371094 8.046875 8.402344 8.113281 8.445312 8.179688 C 8.523438 8.304688 8.613281 8.433594 8.703125 8.554688 C 8.75 8.617188 8.792969 8.675781 8.839844 8.734375 C 8.878906 8.796875 8.925781 8.871094 8.964844 8.933594 C 9.117188 9.210938 9.15625 9.484375 9.1875 9.699219 C 9.214844 9.914062 9.230469 10.074219 9.238281 10.199219 C 9.253906 10.316406 9.25 10.386719 9.226562 10.394531 C 9.203125 10.398438 9.164062 10.34375 9.113281 10.230469 C 9.0625 10.121094 9.007812 9.945312 8.949219 9.746094 C 8.890625 9.542969 8.828125 9.308594 8.691406 9.09375 C 8.65625 9.039062 8.617188 8.988281 8.578125 8.933594 C 8.53125 8.875 8.484375 8.816406 8.4375 8.757812 C 8.34375 8.632812 8.246094 8.5 8.152344 8.355469 C 8.148438 8.34375 8.144531 8.332031 8.136719 8.320312 C 8.195312 9.050781 8.117188 9.71875 8.3125 10.464844 C 8.648438 11.769531 8.78125 13.136719 8.996094 14.476562 C 9.058594 14.328125 9.140625 14.183594 9.234375 14.046875 C 9.375 13.84375 9.511719 13.664062 9.617188 13.496094 C 9.730469 13.328125 9.792969 13.164062 9.847656 13.027344 C 9.890625 12.890625 9.925781 12.773438 9.941406 12.675781 C 9.960938 12.589844 9.984375 12.539062 10.007812 12.539062 C 10.03125 12.539062 10.054688 12.589844 10.074219 12.675781 C 10.101562 12.765625 10.101562 12.902344 10.085938 13.082031 C 10.054688 13.25 10 13.453125 9.890625 13.648438 C 9.789062 13.847656 9.648438 14.046875 9.511719 14.238281 C 9.378906 14.433594 9.273438 14.617188 9.222656 14.796875 C 9.1875 14.882812 9.183594 14.96875 9.171875 15.050781 C 9.175781 15.132812 9.171875 15.214844 9.179688 15.285156 C 9.1875 15.320312 9.191406 15.351562 9.195312 15.382812 C 9.695312 15.921875 10.785156 15.535156 11.382812 15.414062 C 12.167969 15.257812 12.960938 15.28125 13.757812 15.289062 C 14.160156 15.292969 14.550781 15.269531 14.941406 15.230469 C 14.871094 15.226562 14.800781 15.21875 14.730469 15.207031 C 14.589844 15.1875 14.425781 15.148438 14.320312 15.097656 L 14.277344 15.082031 L 14.269531 15.074219 L 14.265625 15.074219 L 14.253906 15.070312 L 14.222656 15.054688 L 14.128906 14.996094 C 14.074219 14.953125 14.019531 14.914062 13.976562 14.871094 C 13.796875 14.699219 13.652344 14.527344 13.515625 14.4375 C 13.488281 14.414062 13.433594 14.394531 13.394531 14.371094 C 13.375 14.355469 13.320312 14.351562 13.285156 14.339844 C 13.207031 14.320312 13.128906 14.3125 13.050781 14.308594 C 12.898438 14.304688 12.765625 14.316406 12.652344 14.324219 C 12.433594 14.34375 12.304688 14.355469 12.300781 14.332031 C 12.296875 14.308594 12.410156 14.253906 12.628906 14.195312 C 12.742188 14.164062 12.878906 14.132812 13.046875 14.117188 C 13.132812 14.113281 13.226562 14.113281 13.324219 14.125 C 13.375 14.136719 13.417969 14.132812 13.484375 14.164062 C 13.53125 14.183594 13.574219 14.191406 13.625 14.226562 C 13.839844 14.34375 13.988281 14.511719 14.160156 14.65625 C 14.246094 14.730469 14.328125 14.785156 14.429688 14.820312 C 14.558594 14.871094 14.652344 14.882812 14.769531 14.898438 C 15.015625 14.925781 15.289062 14.910156 15.578125 14.898438 C 15.726562 14.890625 15.878906 14.890625 16.035156 14.894531 C 16.105469 14.890625 16.171875 14.886719 16.242188 14.878906 L 16.300781 14.878906 L 16.347656 14.867188 L 16.4375 14.839844 C 16.6875 14.777344 16.929688 14.613281 17.171875 14.453125 C 17.417969 14.289062 17.667969 14.136719 17.945312 14.046875 C 18.074219 14.003906 18.191406 13.964844 18.335938 13.945312 C 18.40625 13.933594 18.472656 13.921875 18.535156 13.914062 C 18.601562 13.90625 18.664062 13.90625 18.726562 13.902344 C 18.847656 13.894531 18.96875 13.894531 19.078125 13.902344 C 19.191406 13.910156 19.300781 13.914062 19.402344 13.925781 C 19.804688 13.964844 20.125 14.015625 20.347656 14.050781 C 20.566406 14.078125 20.691406 14.105469 20.691406 14.128906 C 20.691406 14.152344 20.566406 14.171875 20.339844 14.183594 C 20.113281 14.191406 19.785156 14.175781 19.386719 14.164062 C 19.285156 14.160156 19.183594 14.164062 19.074219 14.164062 C 18.96875 14.164062 18.859375 14.171875 18.746094 14.183594 C 18.6875 14.191406 18.628906 14.195312 18.574219 14.199219 C 18.519531 14.214844 18.464844 14.226562 18.40625 14.234375 C 18.296875 14.25 18.171875 14.296875 18.046875 14.34375 L 17.953125 14.378906 L 17.878906 14.414062 C 17.820312 14.445312 17.761719 14.476562 17.703125 14.507812 C 17.59375 14.578125 17.476562 14.644531 17.359375 14.730469 C 17.25 14.800781 17.140625 14.875 17.019531 14.949219 C 17.660156 14.863281 18.304688 14.792969 18.964844 14.800781 C 20.042969 14.816406 21.085938 14.765625 22.121094 14.429688 C 22.90625 14.183594 23.703125 13.859375 24.527344 13.789062 C 25.519531 13.703125 26.527344 13.863281 27.507812 13.734375 C 28.246094 13.640625 28.96875 13.460938 29.699219 13.347656 Z M 29.804688 15.738281 C 29.847656 15.125 29.882812 14.460938 29.722656 13.949219 C 28.734375 14.097656 27.78125 14.378906 26.777344 14.371094 C 25.570312 14.367188 24.433594 14.324219 23.269531 14.699219 C 22.679688 14.886719 22.09375 15.089844 21.492188 15.226562 C 21.414062 15.285156 21.339844 15.351562 21.269531 15.410156 C 21.105469 15.550781 20.941406 15.679688 20.789062 15.765625 C 20.710938 15.804688 20.644531 15.84375 20.566406 15.863281 C 20.496094 15.886719 20.4375 15.902344 20.394531 15.898438 C 20.300781 15.902344 20.246094 15.894531 20.238281 15.871094 C 20.234375 15.847656 20.277344 15.8125 20.359375 15.773438 C 20.40625 15.753906 20.445312 15.71875 20.496094 15.6875 C 20.542969 15.660156 20.597656 15.613281 20.65625 15.566406 C 20.730469 15.503906 20.808594 15.425781 20.898438 15.335938 C 20.757812 15.355469 20.617188 15.371094 20.476562 15.378906 C 19.414062 15.441406 18.289062 15.269531 17.242188 15.464844 C 16.339844 15.636719 15.464844 15.886719 14.539062 15.894531 C 13.46875 15.902344 12.402344 15.8125 11.34375 16.039062 C 11.1875 16.074219 11.027344 16.109375 10.859375 16.140625 C 11.007812 16.171875 11.144531 16.195312 11.273438 16.222656 C 11.785156 16.304688 12.097656 16.359375 12.097656 16.398438 C 12.101562 16.4375 11.78125 16.457031 11.242188 16.429688 C 10.980469 16.40625 10.660156 16.375 10.304688 16.328125 C 10.128906 16.308594 9.941406 16.273438 9.746094 16.261719 C 9.621094 16.253906 9.492188 16.242188 9.363281 16.230469 C 9.421875 16.441406 9.519531 16.667969 9.625 16.882812 C 9.683594 17 9.746094 17.121094 9.808594 17.222656 C 9.839844 17.277344 9.871094 17.328125 9.910156 17.382812 L 9.96875 17.460938 L 10.019531 17.519531 C 10.152344 17.679688 10.34375 17.738281 10.578125 17.777344 C 10.636719 17.789062 10.699219 17.804688 10.757812 17.816406 C 10.820312 17.832031 10.890625 17.855469 10.957031 17.878906 C 11.007812 17.902344 11.050781 17.933594 11.101562 17.957031 L 11.105469 17.960938 L 11.125 17.972656 L 11.136719 17.984375 L 11.15625 18 L 11.191406 18.03125 C 11.214844 18.054688 11.238281 18.074219 11.257812 18.101562 C 11.410156 18.285156 11.488281 18.464844 11.582031 18.601562 C 11.628906 18.671875 11.660156 18.71875 11.726562 18.78125 L 11.761719 18.816406 L 11.804688 18.84375 C 11.835938 18.863281 11.863281 18.886719 11.890625 18.902344 C 12.003906 18.976562 12.109375 19.035156 12.191406 19.070312 C 12.277344 19.113281 12.355469 19.132812 12.402344 19.152344 C 12.453125 19.175781 12.480469 19.191406 12.476562 19.199219 C 12.476562 19.210938 12.449219 19.21875 12.390625 19.21875 C 12.335938 19.222656 12.261719 19.226562 12.160156 19.195312 C 12.050781 19.179688 11.933594 19.132812 11.796875 19.070312 C 11.761719 19.054688 11.730469 19.035156 11.695312 19.015625 L 11.640625 18.988281 L 11.636719 18.988281 L 11.625 18.976562 L 11.617188 18.972656 L 11.609375 18.960938 L 11.585938 18.945312 C 11.527344 18.902344 11.445312 18.816406 11.390625 18.742188 C 11.269531 18.597656 11.171875 18.421875 11.046875 18.289062 C 11.035156 18.273438 11.015625 18.257812 11 18.246094 L 10.976562 18.226562 L 10.964844 18.21875 L 10.964844 18.214844 C 10.917969 18.191406 10.867188 18.167969 10.820312 18.148438 C 10.777344 18.136719 10.734375 18.125 10.691406 18.117188 C 10.636719 18.105469 10.582031 18.097656 10.527344 18.089844 C 10.410156 18.066406 10.277344 18.050781 10.140625 17.996094 L 10.039062 17.953125 L 9.945312 17.894531 C 9.914062 17.871094 9.878906 17.851562 9.851562 17.828125 L 9.773438 17.746094 L 9.691406 17.65625 L 9.636719 17.578125 C 9.597656 17.527344 9.5625 17.464844 9.523438 17.40625 C 9.449219 17.28125 9.382812 17.164062 9.320312 17.035156 C 9.300781 16.996094 9.28125 16.949219 9.261719 16.90625 C 9.175781 18.375 9.402344 19.851562 9.140625 21.308594 C 12.472656 22.054688 15.960938 21.21875 19.324219 21.234375 C 20.40625 21.238281 21.445312 21.054688 22.488281 20.871094 C 22.464844 20.871094 22.441406 20.871094 22.417969 20.867188 C 21.949219 20.820312 21.46875 20.714844 20.945312 20.6875 C 20.8125 20.675781 20.683594 20.660156 20.554688 20.652344 C 20.492188 20.644531 20.429688 20.636719 20.367188 20.632812 L 20.355469 20.632812 L 20.332031 20.628906 L 20.324219 20.625 L 20.300781 20.621094 L 20.25 20.605469 L 20.152344 20.574219 C 20.015625 20.539062 19.90625 20.472656 19.792969 20.425781 C 19.6875 20.371094 19.59375 20.320312 19.484375 20.277344 C 19.285156 20.183594 19.140625 20.167969 18.949219 20.21875 C 18.855469 20.238281 18.753906 20.265625 18.652344 20.28125 C 18.546875 20.296875 18.476562 20.308594 18.367188 20.3125 C 18.015625 20.320312 17.714844 20.28125 17.527344 20.195312 C 17.324219 20.097656 17.285156 20 17.289062 19.984375 C 17.304688 19.957031 17.40625 20.039062 17.570312 20.070312 C 17.746094 20.105469 18.015625 20.109375 18.351562 20.070312 C 18.417969 20.066406 18.527344 20.042969 18.605469 20.023438 C 18.6875 20.003906 18.777344 19.976562 18.878906 19.945312 C 18.976562 19.914062 19.101562 19.886719 19.234375 19.894531 C 19.300781 19.894531 19.363281 19.90625 19.425781 19.925781 L 19.476562 19.9375 C 19.507812 19.949219 19.503906 19.949219 19.523438 19.953125 L 19.605469 19.984375 C 19.710938 20.023438 19.820312 20.082031 19.933594 20.132812 C 20.039062 20.171875 20.144531 20.234375 20.25 20.257812 L 20.332031 20.277344 L 20.371094 20.289062 L 20.394531 20.296875 L 20.402344 20.296875 C 20.460938 20.300781 20.527344 20.304688 20.589844 20.3125 C 20.71875 20.324219 20.847656 20.335938 20.980469 20.347656 C 21.511719 20.378906 22.015625 20.496094 22.453125 20.554688 C 22.671875 20.589844 22.882812 20.589844 23.070312 20.59375 C 23.28125 20.585938 23.433594 20.558594 23.605469 20.519531 C 23.933594 20.445312 24.214844 20.371094 24.417969 20.359375 C 24.613281 20.34375 24.726562 20.367188 24.726562 20.386719 C 24.726562 20.414062 24.617188 20.4375 24.4375 20.488281 C 24.324219 20.519531 24.175781 20.574219 24 20.636719 C 24.25 20.605469 24.5 20.582031 24.753906 20.566406 C 26.183594 20.46875 27.742188 20.726562 29.128906 20.296875 C 29.242188 20.257812 29.355469 20.214844 29.46875 20.171875 C 29.6875 19 29.75 17.886719 29.75 16.691406 C 29.75 16.53125 29.757812 16.355469 29.773438 16.167969 C 29.597656 16.242188 29.40625 16.246094 29.261719 16.242188 C 29.058594 16.230469 28.882812 16.226562 28.738281 16.25 L 28.675781 16.265625 C 28.667969 16.265625 28.652344 16.269531 28.652344 16.269531 L 28.625 16.277344 C 28.585938 16.292969 28.550781 16.300781 28.53125 16.3125 C 28.503906 16.328125 28.496094 16.332031 28.476562 16.355469 C 28.460938 16.371094 28.4375 16.410156 28.414062 16.445312 C 28.390625 16.480469 28.359375 16.515625 28.332031 16.554688 C 28.300781 16.589844 28.277344 16.609375 28.25 16.636719 C 28.195312 16.6875 28.128906 16.753906 28.066406 16.789062 C 27.796875 16.953125 27.5625 16.960938 27.414062 16.984375 C 27.261719 17 27.175781 17.003906 27.171875 16.980469 C 27.164062 16.960938 27.234375 16.910156 27.382812 16.855469 C 27.523438 16.796875 27.742188 16.742188 27.925781 16.59375 C 27.972656 16.554688 28.003906 16.515625 28.054688 16.460938 C 28.074219 16.433594 28.109375 16.402344 28.125 16.375 C 28.140625 16.347656 28.160156 16.324219 28.175781 16.292969 C 28.195312 16.261719 28.210938 16.226562 28.246094 16.179688 C 28.277344 16.132812 28.332031 16.082031 28.382812 16.054688 C 28.429688 16.023438 28.476562 16.007812 28.523438 15.988281 L 28.558594 15.976562 L 28.601562 15.964844 L 28.664062 15.945312 C 29.078125 15.84375 29.5 15.992188 29.738281 15.796875 C 29.761719 15.78125 29.78125 15.757812 29.804688 15.738281 Z M 31.035156 22.085938 C 31.078125 21.375 31.359375 20.679688 31.398438 19.980469 C 30.972656 20.265625 30.410156 20.460938 29.925781 20.632812 C 29.917969 20.640625 29.910156 20.644531 29.902344 20.652344 C 29.738281 20.722656 29.578125 20.78125 29.414062 20.832031 C 29.023438 20.988281 28.636719 21.148438 28.257812 21.320312 L 28.246094 21.335938 L 28.246094 21.339844 C 28.246094 21.339844 28.246094 21.339844 28.246094 21.34375 L 28.21875 21.417969 C 28.203125 21.464844 28.203125 21.503906 28.175781 21.597656 C 28.144531 21.695312 28.089844 21.761719 28.039062 21.824219 L 27.96875 21.894531 L 27.953125 21.914062 C 27.9375 21.929688 27.9375 21.929688 27.929688 21.9375 L 27.886719 21.972656 C 27.675781 22.175781 27.445312 22.304688 27.257812 22.433594 C 27.058594 22.554688 26.914062 22.675781 26.792969 22.789062 C 26.6875 22.902344 26.605469 23 26.554688 23.09375 C 26.5 23.179688 26.460938 23.222656 26.4375 23.214844 C 26.417969 23.207031 26.414062 23.148438 26.429688 23.046875 C 26.4375 22.953125 26.5 22.800781 26.609375 22.632812 C 26.71875 22.480469 26.882812 22.316406 27.078125 22.175781 C 27.261719 22.027344 27.480469 21.894531 27.65625 21.722656 L 27.691406 21.691406 L 27.707031 21.679688 L 27.722656 21.664062 L 27.789062 21.589844 C 27.816406 21.558594 27.839844 21.53125 27.851562 21.507812 C 27.527344 21.65625 27.207031 21.8125 26.882812 21.976562 C 26.03125 22.414062 25.164062 22.890625 24.246094 23.191406 C 23.355469 23.484375 22.433594 23.644531 21.550781 23.984375 C 20.765625 24.285156 19.933594 24.570312 19.148438 24.902344 C 19.050781 24.945312 18.9375 24.996094 18.816406 25.054688 C 18.59375 25.160156 18.332031 25.289062 18.074219 25.46875 C 17.820312 25.648438 17.558594 25.875 17.421875 26.183594 C 17.378906 26.257812 17.367188 26.328125 17.339844 26.402344 C 17.332031 26.441406 17.328125 26.492188 17.316406 26.535156 L 17.308594 26.605469 C 17.304688 26.605469 17.304688 26.636719 17.304688 26.652344 C 17.300781 26.726562 17.3125 26.796875 17.324219 26.875 C 17.339844 26.957031 17.359375 27.046875 17.367188 27.148438 C 17.367188 27.203125 17.363281 27.277344 17.355469 27.308594 L 17.34375 27.367188 L 17.332031 27.402344 L 17.328125 27.417969 L 17.3125 27.449219 C 17.28125 27.53125 17.238281 27.601562 17.199219 27.671875 C 17.117188 27.804688 17.03125 27.910156 16.976562 28.003906 C 16.917969 28.101562 16.890625 28.183594 16.894531 28.265625 C 16.898438 28.34375 16.921875 28.421875 16.945312 28.480469 C 16.992188 28.601562 17.039062 28.679688 17.015625 28.691406 C 16.996094 28.699219 16.925781 28.667969 16.832031 28.546875 C 16.785156 28.488281 16.734375 28.40625 16.707031 28.289062 C 16.679688 28.171875 16.703125 28.027344 16.757812 27.898438 C 16.816406 27.769531 16.890625 27.652344 16.953125 27.53125 C 16.984375 27.46875 17.015625 27.40625 17.035156 27.34375 L 17.042969 27.316406 L 17.042969 27.3125 L 17.050781 27.253906 C 17.0625 27.207031 17.050781 27.199219 17.054688 27.167969 C 17.046875 27.105469 17.027344 27.03125 17.003906 26.941406 C 16.988281 26.851562 16.96875 26.75 16.972656 26.644531 C 16.972656 26.613281 16.96875 26.597656 16.976562 26.554688 L 16.984375 26.488281 C 16.992188 26.441406 16.996094 26.402344 17.003906 26.351562 C 17.035156 26.246094 17.0625 26.128906 17.113281 26.039062 C 17.144531 25.964844 17.183594 25.898438 17.226562 25.835938 C 16.976562 25.953125 16.726562 26.0625 16.464844 26.15625 C 16.378906 26.605469 16.21875 27.019531 16.109375 27.472656 C 15.941406 28.164062 16.050781 28.695312 16.117188 29.386719 C 16.21875 30.433594 15.898438 31.410156 15.527344 32.375 C 16.183594 32.296875 16.746094 31.996094 17.371094 31.738281 C 18.253906 31.371094 19.128906 30.984375 19.992188 30.574219 C 21.335938 29.933594 22.707031 29.550781 24.09375 29.035156 C 25.554688 28.492188 26.457031 27.292969 27.777344 26.542969 C 28.839844 25.941406 29.96875 25.484375 31.109375 25.058594 C 31.179688 24.0625 30.976562 23.082031 31.035156 22.085938 Z M 31.3125 19.183594 C 31.308594 19.175781 31.308594 19.164062 31.304688 19.15625 C 31.285156 19.09375 31.285156 19.039062 31.300781 18.992188 C 31.183594 18.695312 30.667969 18.398438 30.304688 18.203125 C 30.273438 18.773438 30.214844 19.339844 30.125 19.917969 C 30.484375 19.765625 30.832031 19.601562 31.144531 19.386719 C 31.238281 19.324219 31.292969 19.253906 31.3125 19.183594 Z M 30.335938 17.539062 C 30.972656 17.902344 32.21875 18.539062 31.964844 19.324219 C 32.121094 20.28125 31.644531 21.097656 31.640625 22.085938 C 31.640625 23.152344 31.820312 24.203125 31.695312 25.265625 C 31.683594 25.386719 31.613281 25.46875 31.527344 25.515625 C 31.496094 25.546875 31.457031 25.574219 31.410156 25.59375 C 29.984375 26.121094 28.378906 26.660156 27.207031 27.667969 C 26.171875 28.5625 25.242188 29.3125 23.917969 29.734375 C 22.195312 30.28125 20.613281 30.984375 18.957031 31.710938 C 17.777344 32.234375 16.492188 33.019531 15.164062 33.007812 C 15.089844 33.007812 15.027344 32.980469 14.980469 32.941406 C 13.925781 32.667969 13.304688 31.886719 12.523438 31.171875 C 11.753906 30.476562 10.855469 29.910156 10.351562 28.96875 C 9.683594 27.710938 8.714844 27.03125 7.609375 26.191406 C 6.628906 25.449219 5.953125 24.441406 5.070312 23.597656 C 5.046875 23.574219 5.03125 23.550781 5.019531 23.523438 C 4.945312 23.476562 4.902344 23.398438 4.917969 23.28125 C 5.117188 21.789062 5.308594 20.246094 5.355469 18.738281 C 5.355469 18.722656 5.355469 18.710938 5.359375 18.695312 C 5.363281 18.597656 5.40625 18.507812 5.503906 18.441406 C 6.085938 18.046875 6.503906 17.554688 7.175781 17.308594 C 7.074219 16.554688 7.03125 15.789062 6.976562 15.042969 C 6.859375 13.488281 6.714844 11.929688 6.628906 10.371094 C 6.554688 8.984375 6.488281 7.546875 6.910156 6.207031 C 6.914062 6.191406 6.921875 6.175781 6.929688 6.160156 C 6.949219 6.113281 6.976562 6.078125 7.011719 6.042969 C 7.023438 5.996094 7.046875 5.949219 7.089844 5.90625 C 7.808594 5.144531 9.042969 5.175781 10.011719 5.121094 C 11.867188 5.011719 13.699219 4.789062 15.5625 4.777344 C 16.542969 4.769531 17.679688 4.917969 18.636719 4.699219 C 19.492188 4.507812 20.289062 4.28125 21.171875 4.238281 C 23.101562 4.148438 25.027344 4.328125 26.960938 4.371094 C 26.996094 4.371094 27.027344 4.378906 27.058594 4.390625 C 27.144531 4.394531 27.226562 4.433594 27.289062 4.519531 C 27.742188 5.160156 27.863281 5.835938 28.121094 6.558594 C 28.417969 7.382812 28.84375 8.144531 29.152344 8.960938 C 29.703125 10.421875 30.460938 12.035156 30.285156 13.625 C 30.285156 13.652344 30.273438 13.679688 30.265625 13.703125 C 30.355469 13.984375 30.398438 14.273438 30.410156 14.570312 C 30.417969 14.675781 30.425781 14.78125 30.429688 14.894531 C 30.425781 15.007812 30.421875 15.125 30.402344 15.246094 C 30.386719 15.613281 30.355469 15.980469 30.355469 16.332031 C 30.355469 16.742188 30.347656 17.140625 30.335938 17.539062 " fill-opacity="1" fill-rule="nonzero"/></g><path fill="#82442c" d="M 31.304688 19.15625 C 31.308594 19.164062 31.308594 19.175781 31.3125 19.183594 C 31.292969 19.253906 31.238281 19.324219 31.144531 19.386719 C 30.832031 19.601562 30.484375 19.765625 30.125 19.917969 C 30.214844 19.339844 30.273438 18.773438 30.304688 18.203125 C 30.667969 18.398438 31.183594 18.695312 31.300781 18.992188 C 31.285156 19.039062 31.285156 19.09375 31.304688 19.15625 " fill-opacity="1" fill-rule="nonzero"/><path fill="#4f2929" d="M 18.359375 31.207031 C 18.421875 31.183594 18.453125 31.164062 18.449219 31.136719 C 18.445312 31.113281 18.414062 31.09375 18.355469 31.078125 C 18.324219 31.066406 18.289062 31.058594 18.25 31.050781 C 18.210938 31.035156 18.171875 31.019531 18.125 31.007812 C 18.078125 30.996094 18.039062 30.96875 17.992188 30.949219 C 17.972656 30.9375 17.957031 30.917969 17.9375 30.902344 L 17.90625 30.882812 L 17.890625 30.851562 C 17.855469 30.820312 17.839844 30.765625 17.816406 30.71875 C 17.808594 30.652344 17.789062 30.597656 17.792969 30.523438 C 17.789062 30.484375 17.789062 30.449219 17.789062 30.414062 L 17.777344 30.15625 L 17.546875 30.253906 C 17.449219 30.292969 17.367188 30.296875 17.273438 30.269531 C 17.179688 30.238281 17.089844 30.179688 17.011719 30.128906 C 16.855469 30.023438 16.742188 29.96875 16.710938 30.003906 C 16.683594 30.035156 16.738281 30.144531 16.859375 30.296875 C 16.925781 30.375 17.011719 30.46875 17.152344 30.546875 C 17.234375 30.589844 17.34375 30.613281 17.453125 30.609375 C 17.464844 30.679688 17.484375 30.753906 17.5 30.820312 C 17.542969 30.914062 17.582031 31 17.65625 31.066406 L 17.707031 31.113281 L 17.761719 31.148438 C 17.800781 31.171875 17.839844 31.191406 17.875 31.207031 C 17.949219 31.222656 18.019531 31.246094 18.078125 31.246094 C 18.144531 31.246094 18.195312 31.242188 18.242188 31.238281 C 18.289062 31.230469 18.328125 31.21875 18.359375 31.207031 Z M 29.824219 24.996094 C 30.214844 24.660156 30.300781 24.335938 30.269531 24.324219 C 30.21875 24.292969 30.058594 24.550781 29.679688 24.800781 C 29.589844 24.871094 29.46875 24.917969 29.355469 24.984375 C 29.230469 25.03125 29.101562 25.09375 28.953125 25.132812 C 28.804688 25.183594 28.660156 25.21875 28.492188 25.253906 C 28.449219 25.261719 28.40625 25.269531 28.363281 25.277344 C 28.320312 25.285156 28.261719 25.296875 28.269531 25.292969 C 28.261719 25.292969 28.25 25.289062 28.207031 25.269531 C 28.175781 25.253906 28.117188 25.21875 28.027344 25.207031 C 27.972656 25.199219 27.921875 25.210938 27.871094 25.222656 L 27.859375 25.226562 L 27.851562 25.234375 C 27.820312 25.253906 27.785156 25.277344 27.757812 25.300781 C 27.730469 25.324219 27.71875 25.34375 27.699219 25.363281 C 27.660156 25.40625 27.640625 25.445312 27.609375 25.484375 C 27.558594 25.566406 27.515625 25.636719 27.472656 25.710938 L 27.410156 25.816406 C 27.390625 25.84375 27.386719 25.867188 27.355469 25.898438 C 27.308594 25.957031 27.257812 26.011719 27.207031 26.070312 C 27.007812 26.289062 26.804688 26.453125 26.613281 26.554688 C 26.523438 26.613281 26.429688 26.640625 26.351562 26.675781 C 26.269531 26.695312 26.199219 26.722656 26.136719 26.734375 C 26.007812 26.753906 25.933594 26.777344 25.933594 26.796875 C 25.933594 26.820312 26.003906 26.84375 26.136719 26.863281 C 26.199219 26.871094 26.289062 26.863281 26.390625 26.859375 C 26.484375 26.835938 26.601562 26.824219 26.714844 26.769531 C 26.949219 26.679688 27.199219 26.511719 27.429688 26.289062 C 27.664062 26.109375 27.859375 25.667969 27.992188 25.546875 C 28 25.546875 28.019531 25.554688 28.0625 25.578125 C 28.101562 25.597656 28.175781 25.632812 28.257812 25.632812 C 28.359375 25.632812 28.382812 25.613281 28.429688 25.605469 C 28.472656 25.597656 28.515625 25.589844 28.554688 25.582031 C 28.726562 25.539062 28.902344 25.492188 29.054688 25.429688 C 29.214844 25.378906 29.351562 25.300781 29.484375 25.234375 C 29.609375 25.148438 29.730469 25.085938 29.824219 24.996094 Z M 30.136719 23.570312 C 30.402344 23.488281 30.53125 23.277344 30.472656 23.214844 C 30.40625 23.140625 30.234375 23.183594 30.039062 23.242188 C 29.867188 23.292969 29.652344 23.371094 29.664062 23.46875 C 29.675781 23.554688 29.851562 23.644531 30.136719 23.570312 Z M 30.089844 23 C 30.425781 22.914062 30.671875 22.710938 30.621094 22.632812 C 30.570312 22.546875 30.320312 22.589844 30.003906 22.667969 C 29.660156 22.753906 29.433594 22.925781 29.464844 23.011719 C 29.492188 23.105469 29.78125 23.074219 30.089844 23 Z M 31.398438 19.980469 C 31.359375 20.679688 31.078125 21.375 31.035156 22.085938 C 30.976562 23.082031 31.179688 24.0625 31.109375 25.058594 C 29.96875 25.484375 28.839844 25.941406 27.777344 26.542969 C 26.457031 27.292969 25.554688 28.492188 24.09375 29.035156 C 22.707031 29.550781 21.335938 29.933594 19.992188 30.574219 C 19.128906 30.984375 18.253906 31.371094 17.371094 31.738281 C 16.746094 31.996094 16.183594 32.296875 15.527344 32.375 C 15.898438 31.410156 16.21875 30.433594 16.117188 29.386719 C 16.050781 28.695312 15.941406 28.164062 16.109375 27.472656 C 16.21875 27.019531 16.378906 26.605469 16.464844 26.15625 C 16.726562 26.0625 16.976562 25.953125 17.226562 25.835938 C 17.183594 25.898438 17.144531 25.964844 17.113281 26.039062 C 17.0625 26.128906 17.035156 26.246094 17.003906 26.351562 C 16.996094 26.402344 16.992188 26.441406 16.984375 26.488281 L 16.976562 26.554688 C 16.96875 26.597656 16.972656 26.613281 16.972656 26.644531 C 16.96875 26.75 16.988281 26.851562 17.003906 26.941406 C 17.027344 27.03125 17.046875 27.105469 17.054688 27.167969 C 17.050781 27.199219 17.0625 27.207031 17.050781 27.253906 L 17.042969 27.3125 L 17.042969 27.316406 L 17.035156 27.34375 C 17.015625 27.40625 16.984375 27.46875 16.953125 27.53125 C 16.890625 27.652344 16.816406 27.769531 16.757812 27.898438 C 16.703125 28.027344 16.679688 28.171875 16.707031 28.289062 C 16.734375 28.40625 16.785156 28.488281 16.832031 28.546875 C 16.925781 28.667969 16.996094 28.699219 17.015625 28.691406 C 17.039062 28.679688 16.992188 28.601562 16.945312 28.480469 C 16.921875 28.421875 16.898438 28.34375 16.894531 28.265625 C 16.890625 28.183594 16.917969 28.101562 16.976562 28.003906 C 17.03125 27.910156 17.117188 27.804688 17.199219 27.671875 C 17.238281 27.601562 17.28125 27.53125 17.3125 27.449219 L 17.328125 27.417969 L 17.332031 27.402344 L 17.34375 27.367188 L 17.355469 27.308594 C 17.363281 27.277344 17.367188 27.203125 17.367188 27.148438 C 17.359375 27.046875 17.339844 26.957031 17.324219 26.875 C 17.3125 26.796875 17.300781 26.726562 17.304688 26.652344 C 17.304688 26.636719 17.304688 26.605469 17.308594 26.605469 L 17.316406 26.535156 C 17.328125 26.492188 17.332031 26.441406 17.339844 26.402344 C 17.367188 26.328125 17.378906 26.257812 17.421875 26.183594 C 17.558594 25.875 17.820312 25.648438 18.074219 25.46875 C 18.332031 25.289062 18.59375 25.160156 18.816406 25.054688 C 18.9375 24.996094 19.050781 24.945312 19.148438 24.902344 C 19.933594 24.570312 20.765625 24.285156 21.550781 23.984375 C 22.433594 23.644531 23.355469 23.484375 24.246094 23.191406 C 25.164062 22.890625 26.03125 22.414062 26.882812 21.976562 C 27.207031 21.8125 27.527344 21.65625 27.851562 21.507812 C 27.839844 21.53125 27.816406 21.558594 27.789062 21.589844 L 27.722656 21.664062 L 27.707031 21.679688 L 27.691406 21.691406 L 27.65625 21.722656 C 27.480469 21.894531 27.261719 22.027344 27.078125 22.175781 C 26.882812 22.316406 26.71875 22.480469 26.609375 22.632812 C 26.5 22.800781 26.4375 22.953125 26.429688 23.046875 C 26.414062 23.148438 26.417969 23.207031 26.4375 23.214844 C 26.460938 23.222656 26.5 23.179688 26.554688 23.09375 C 26.605469 23 26.6875 22.902344 26.792969 22.789062 C 26.914062 22.675781 27.058594 22.554688 27.257812 22.433594 C 27.445312 22.304688 27.675781 22.175781 27.886719 21.972656 L 27.929688 21.9375 C 27.9375 21.929688 27.9375 21.929688 27.953125 21.914062 L 27.96875 21.894531 L 28.039062 21.824219 C 28.089844 21.761719 28.144531 21.695312 28.175781 21.597656 C 28.203125 21.503906 28.203125 21.464844 28.21875 21.417969 L 28.246094 21.34375 C 28.246094 21.34375 28.246094 21.339844 28.246094 21.339844 L 28.246094 21.335938 L 28.257812 21.320312 C 28.636719 21.148438 29.023438 20.988281 29.414062 20.832031 C 29.578125 20.78125 29.738281 20.722656 29.902344 20.652344 C 29.910156 20.644531 29.917969 20.640625 29.925781 20.632812 C 30.410156 20.460938 30.972656 20.265625 31.398438 19.980469 " fill-opacity="1" fill-rule="nonzero"/><path fill="#000000" d="M 30.621094 22.632812 C 30.671875 22.710938 30.425781 22.914062 30.089844 23 C 29.78125 23.074219 29.492188 23.105469 29.464844 23.011719 C 29.433594 22.925781 29.660156 22.753906 30.003906 22.667969 C 30.320312 22.589844 30.570312 22.546875 30.621094 22.632812 " fill-opacity="1" fill-rule="nonzero"/><path fill="#000000" d="M 30.472656 23.214844 C 30.53125 23.277344 30.402344 23.488281 30.136719 23.570312 C 29.851562 23.644531 29.675781 23.554688 29.664062 23.46875 C 29.652344 23.371094 29.867188 23.292969 30.039062 23.242188 C 30.234375 23.183594 30.40625 23.140625 30.472656 23.214844 " fill-opacity="1" fill-rule="nonzero"/><path fill="#000000" d="M 30.269531 24.324219 C 30.300781 24.335938 30.214844 24.660156 29.824219 24.996094 C 29.730469 25.085938 29.609375 25.148438 29.484375 25.234375 C 29.351562 25.300781 29.214844 25.378906 29.054688 25.429688 C 28.902344 25.492188 28.726562 25.539062 28.554688 25.582031 C 28.515625 25.589844 28.472656 25.597656 28.429688 25.605469 C 28.382812 25.613281 28.359375 25.632812 28.257812 25.632812 C 28.175781 25.632812 28.101562 25.597656 28.0625 25.578125 C 28.019531 25.554688 28 25.546875 27.992188 25.546875 C 27.859375 25.667969 27.664062 26.109375 27.429688 26.289062 C 27.199219 26.511719 26.949219 26.679688 26.714844 26.769531 C 26.601562 26.824219 26.484375 26.835938 26.390625 26.859375 C 26.289062 26.863281 26.199219 26.871094 26.136719 26.863281 C 26.003906 26.84375 25.933594 26.820312 25.933594 26.796875 C 25.933594 26.777344 26.007812 26.753906 26.136719 26.734375 C 26.199219 26.722656 26.269531 26.695312 26.351562 26.675781 C 26.429688 26.640625 26.523438 26.613281 26.613281 26.554688 C 26.804688 26.453125 27.007812 26.289062 27.207031 26.070312 C 27.257812 26.011719 27.308594 25.957031 27.355469 25.898438 C 27.386719 25.867188 27.390625 25.84375 27.410156 25.816406 L 27.472656 25.710938 C 27.515625 25.636719 27.558594 25.566406 27.609375 25.484375 C 27.640625 25.445312 27.660156 25.40625 27.699219 25.363281 C 27.71875 25.34375 27.730469 25.324219 27.757812 25.300781 C 27.785156 25.277344 27.820312 25.253906 27.851562 25.234375 L 27.859375 25.226562 L 27.871094 25.222656 C 27.921875 25.210938 27.972656 25.199219 28.027344 25.207031 C 28.117188 25.21875 28.175781 25.253906 28.207031 25.269531 C 28.25 25.289062 28.261719 25.292969 28.269531 25.292969 C 28.261719 25.296875 28.320312 25.285156 28.363281 25.277344 C 28.40625 25.269531 28.449219 25.261719 28.492188 25.253906 C 28.660156 25.21875 28.804688 25.183594 28.953125 25.132812 C 29.101562 25.09375 29.230469 25.03125 29.355469 24.984375 C 29.46875 24.917969 29.589844 24.871094 29.679688 24.800781 C 30.058594 24.550781 30.21875 24.292969 30.269531 24.324219 " fill-opacity="1" fill-rule="nonzero"/><path fill="#4f2929" d="M 11.757812 20.265625 C 12.105469 20.335938 12.382812 20.25 12.375 20.160156 C 12.375 20.0625 12.121094 19.996094 11.832031 19.933594 C 11.558594 19.871094 11.273438 19.8125 11.242188 19.910156 C 11.210938 19.992188 11.398438 20.175781 11.757812 20.265625 Z M 11.488281 20.890625 C 12.070312 21.050781 12.558594 20.957031 12.554688 20.867188 C 12.550781 20.769531 12.101562 20.707031 11.582031 20.566406 C 11.324219 20.488281 11.09375 20.40625 10.929688 20.347656 C 10.757812 20.28125 10.636719 20.246094 10.613281 20.285156 C 10.585938 20.324219 10.652344 20.429688 10.800781 20.554688 C 10.960938 20.679688 11.203125 20.808594 11.488281 20.890625 Z M 28.859375 19.101562 C 28.859375 19.003906 28.699219 18.910156 28.460938 18.863281 C 28.179688 18.8125 28.007812 18.910156 28 19 C 27.996094 19.097656 28.214844 19.160156 28.402344 19.199219 C 28.632812 19.246094 28.855469 19.191406 28.859375 19.101562 Z M 29.109375 19.730469 C 29.109375 19.632812 28.710938 19.570312 28.234375 19.492188 C 28 19.449219 27.792969 19.410156 27.636719 19.382812 C 27.480469 19.347656 27.367188 19.332031 27.347656 19.378906 C 27.328125 19.417969 27.390625 19.507812 27.539062 19.601562 C 27.691406 19.699219 27.917969 19.78125 28.175781 19.828125 C 28.695312 19.910156 29.113281 19.820312 29.109375 19.730469 Z M 29.722656 13.949219 C 29.882812 14.460938 29.847656 15.125 29.804688 15.738281 C 29.78125 15.757812 29.761719 15.78125 29.738281 15.796875 C 29.5 15.992188 29.078125 15.84375 28.664062 15.945312 L 28.601562 15.964844 L 28.558594 15.976562 L 28.523438 15.988281 C 28.476562 16.007812 28.429688 16.023438 28.382812 16.054688 C 28.332031 16.082031 28.277344 16.132812 28.246094 16.179688 C 28.210938 16.226562 28.195312 16.261719 28.175781 16.292969 C 28.160156 16.324219 28.140625 16.347656 28.125 16.375 C 28.109375 16.402344 28.074219 16.433594 28.054688 16.460938 C 28.003906 16.515625 27.972656 16.554688 27.925781 16.59375 C 27.742188 16.742188 27.523438 16.796875 27.382812 16.855469 C 27.234375 16.910156 27.164062 16.960938 27.171875 16.980469 C 27.175781 17.003906 27.261719 17 27.414062 16.984375 C 27.5625 16.960938 27.796875 16.953125 28.066406 16.789062 C 28.128906 16.753906 28.195312 16.6875 28.25 16.636719 C 28.277344 16.609375 28.300781 16.589844 28.332031 16.554688 C 28.359375 16.515625 28.390625 16.480469 28.414062 16.445312 C 28.4375 16.410156 28.460938 16.371094 28.476562 16.355469 C 28.496094 16.332031 28.503906 16.328125 28.53125 16.3125 C 28.550781 16.300781 28.585938 16.292969 28.625 16.277344 L 28.652344 16.269531 C 28.652344 16.269531 28.667969 16.265625 28.675781 16.265625 L 28.738281 16.25 C 28.882812 16.226562 29.058594 16.230469 29.261719 16.242188 C 29.40625 16.246094 29.597656 16.242188 29.773438 16.167969 C 29.757812 16.355469 29.75 16.53125 29.75 16.691406 C 29.75 17.886719 29.6875 19 29.46875 20.171875 C 29.355469 20.214844 29.242188 20.257812 29.128906 20.296875 C 27.742188 20.726562 26.183594 20.46875 24.753906 20.566406 C 24.5 20.582031 24.25 20.605469 24 20.636719 C 24.175781 20.574219 24.324219 20.519531 24.4375 20.488281 C 24.617188 20.4375 24.726562 20.414062 24.726562 20.386719 C 24.726562 20.367188 24.613281 20.34375 24.417969 20.359375 C 24.214844 20.371094 23.933594 20.445312 23.605469 20.519531 C 23.433594 20.558594 23.28125 20.585938 23.070312 20.59375 C 22.882812 20.589844 22.671875 20.589844 22.453125 20.554688 C 22.015625 20.496094 21.511719 20.378906 20.980469 20.347656 C 20.847656 20.335938 20.71875 20.324219 20.589844 20.3125 C 20.527344 20.304688 20.460938 20.300781 20.402344 20.296875 L 20.394531 20.296875 L 20.398438 20.292969 C 20.394531 20.292969 20.390625 20.292969 20.390625 20.289062 L 20.382812 20.285156 C 20.390625 20.285156 20.375 20.289062 20.390625 20.289062 L 20.394531 20.296875 L 20.371094 20.289062 L 20.332031 20.277344 L 20.25 20.257812 C 20.144531 20.234375 20.039062 20.171875 19.933594 20.132812 C 19.820312 20.082031 19.710938 20.023438 19.605469 19.984375 L 19.523438 19.953125 C 19.503906 19.949219 19.507812 19.949219 19.476562 19.9375 L 19.425781 19.925781 C 19.363281 19.90625 19.300781 19.894531 19.234375 19.894531 C 19.101562 19.886719 18.976562 19.914062 18.878906 19.945312 C 18.777344 19.976562 18.6875 20.003906 18.605469 20.023438 C 18.527344 20.042969 18.417969 20.066406 18.351562 20.070312 C 18.015625 20.109375 17.746094 20.105469 17.570312 20.070312 C 17.40625 20.039062 17.304688 19.957031 17.289062 19.984375 C 17.285156 20 17.324219 20.097656 17.527344 20.195312 C 17.714844 20.28125 18.015625 20.320312 18.367188 20.3125 C 18.476562 20.308594 18.546875 20.296875 18.652344 20.28125 C 18.753906 20.265625 18.855469 20.238281 18.949219 20.21875 C 19.140625 20.167969 19.285156 20.183594 19.484375 20.277344 C 19.59375 20.320312 19.6875 20.371094 19.792969 20.425781 C 19.90625 20.472656 20.015625 20.539062 20.152344 20.574219 L 20.25 20.605469 L 20.300781 20.621094 L 20.324219 20.625 L 20.332031 20.628906 L 20.355469 20.632812 L 20.367188 20.632812 C 20.429688 20.636719 20.492188 20.644531 20.554688 20.652344 C 20.683594 20.660156 20.8125 20.675781 20.945312 20.6875 C 21.46875 20.714844 21.949219 20.820312 22.417969 20.867188 C 22.441406 20.871094 22.464844 20.871094 22.488281 20.871094 C 21.445312 21.054688 20.40625 21.238281 19.324219 21.234375 C 15.960938 21.21875 12.472656 22.054688 9.140625 21.308594 C 9.402344 19.851562 9.175781 18.375 9.261719 16.90625 C 9.28125 16.949219 9.300781 16.996094 9.320312 17.035156 C 9.382812 17.164062 9.449219 17.28125 9.523438 17.40625 C 9.5625 17.464844 9.597656 17.527344 9.636719 17.578125 L 9.691406 17.65625 L 9.773438 17.746094 L 9.851562 17.828125 C 9.878906 17.851562 9.914062 17.871094 9.945312 17.894531 L 10.039062 17.953125 L 10.140625 17.996094 C 10.277344 18.050781 10.410156 18.066406 10.527344 18.089844 C 10.582031 18.097656 10.636719 18.105469 10.691406 18.117188 C 10.734375 18.125 10.777344 18.136719 10.820312 18.148438 C 10.867188 18.167969 10.917969 18.191406 10.964844 18.214844 L 10.964844 18.21875 L 10.976562 18.226562 L 11 18.246094 C 11.015625 18.257812 11.035156 18.273438 11.046875 18.289062 C 11.171875 18.421875 11.269531 18.597656 11.390625 18.742188 C 11.445312 18.816406 11.527344 18.902344 11.585938 18.945312 L 11.609375 18.960938 L 11.617188 18.972656 L 11.625 18.976562 L 11.636719 18.988281 L 11.640625 18.988281 L 11.695312 19.015625 C 11.730469 19.035156 11.761719 19.054688 11.796875 19.070312 C 11.933594 19.132812 12.050781 19.179688 12.160156 19.195312 C 12.261719 19.226562 12.335938 19.222656 12.390625 19.21875 C 12.449219 19.21875 12.476562 19.210938 12.476562 19.199219 C 12.480469 19.191406 12.453125 19.175781 12.402344 19.152344 C 12.355469 19.132812 12.277344 19.113281 12.191406 19.070312 C 12.109375 19.035156 12.003906 18.976562 11.890625 18.902344 C 11.863281 18.886719 11.835938 18.863281 11.804688 18.84375 L 11.761719 18.816406 L 11.726562 18.78125 C 11.660156 18.71875 11.628906 18.671875 11.582031 18.601562 C 11.488281 18.464844 11.410156 18.285156 11.257812 18.101562 C 11.238281 18.074219 11.214844 18.054688 11.191406 18.03125 L 11.15625 18 L 11.136719 17.984375 L 11.125 17.972656 L 11.105469 17.960938 L 11.101562 17.957031 C 11.050781 17.933594 11.007812 17.902344 10.957031 17.878906 C 10.890625 17.855469 10.820312 17.832031 10.757812 17.816406 C 10.699219 17.804688 10.636719 17.789062 10.578125 17.777344 C 10.34375 17.738281 10.152344 17.679688 10.019531 17.519531 L 9.96875 17.460938 L 9.910156 17.382812 C 9.871094 17.328125 9.839844 17.277344 9.808594 17.222656 C 9.746094 17.121094 9.683594 17 9.625 16.882812 C 9.519531 16.667969 9.421875 16.441406 9.363281 16.230469 C 9.492188 16.242188 9.621094 16.253906 9.746094 16.261719 C 9.941406 16.273438 10.128906 16.308594 10.304688 16.328125 C 10.660156 16.375 10.980469 16.40625 11.242188 16.429688 C 11.78125 16.457031 12.101562 16.4375 12.097656 16.398438 C 12.097656 16.359375 11.785156 16.304688 11.273438 16.222656 C 11.144531 16.195312 11.007812 16.171875 10.859375 16.140625 C 11.027344 16.109375 11.1875 16.074219 11.34375 16.039062 C 12.402344 15.8125 13.46875 15.902344 14.539062 15.894531 C 15.464844 15.886719 16.339844 15.636719 17.242188 15.464844 C 18.289062 15.269531 19.414062 15.441406 20.476562 15.378906 C 20.617188 15.371094 20.757812 15.355469 20.898438 15.335938 C 20.808594 15.425781 20.730469 15.503906 20.65625 15.566406 C 20.597656 15.613281 20.542969 15.660156 20.496094 15.6875 C 20.445312 15.71875 20.40625 15.753906 20.359375 15.773438 C 20.277344 15.8125 20.234375 15.847656 20.238281 15.871094 C 20.246094 15.894531 20.300781 15.902344 20.394531 15.898438 C 20.4375 15.902344 20.496094 15.886719 20.566406 15.863281 C 20.644531 15.84375 20.710938 15.804688 20.789062 15.765625 C 20.941406 15.679688 21.105469 15.550781 21.269531 15.410156 C 21.339844 15.351562 21.414062 15.285156 21.492188 15.226562 C 22.09375 15.089844 22.679688 14.886719 23.269531 14.699219 C 24.433594 14.324219 25.570312 14.367188 26.777344 14.371094 C 27.78125 14.378906 28.734375 14.097656 29.722656 13.949219 " fill-opacity="1" fill-rule="nonzero"/><g clip-path="url(#d23c7e1734)"><path fill="#82442c" d="M 13.226562 9.78125 C 13.601562 9.710938 13.84375 9.660156 13.839844 9.613281 C 13.835938 9.566406 13.597656 9.53125 13.199219 9.539062 C 13 9.550781 12.757812 9.566406 12.492188 9.667969 C 12.242188 9.753906 11.960938 9.953125 11.820312 10.253906 C 11.300781 10.171875 10.828125 10.15625 10.476562 10.183594 C 10.105469 10.214844 9.878906 10.273438 9.878906 10.320312 C 9.882812 10.367188 10.113281 10.390625 10.480469 10.421875 C 10.84375 10.453125 11.339844 10.507812 11.890625 10.609375 L 12.023438 10.636719 L 12.082031 10.5 L 12.113281 10.429688 C 12.207031 10.203125 12.402344 10.050781 12.613281 9.957031 C 12.820312 9.863281 13.042969 9.816406 13.226562 9.78125 Z M 21.726562 8.703125 C 21.722656 8.671875 21.519531 8.644531 21.160156 8.699219 C 21.074219 8.714844 20.972656 8.726562 20.871094 8.761719 C 20.816406 8.777344 20.761719 8.792969 20.707031 8.8125 C 20.652344 8.835938 20.59375 8.863281 20.535156 8.886719 C 20.347656 8.980469 20.144531 9.117188 19.980469 9.320312 C 19.648438 9.078125 19.277344 8.8125 18.847656 8.570312 C 18.734375 8.511719 18.636719 8.453125 18.519531 8.40625 C 18.457031 8.378906 18.402344 8.355469 18.34375 8.332031 C 18.289062 8.308594 18.234375 8.296875 18.179688 8.277344 C 17.941406 8.191406 17.699219 8.1875 17.488281 8.1875 C 17.058594 8.195312 16.675781 8.261719 16.367188 8.355469 C 16.054688 8.445312 15.8125 8.574219 15.675781 8.707031 C 15.527344 8.847656 15.515625 8.941406 15.527344 8.957031 C 15.546875 8.976562 15.617188 8.886719 15.753906 8.8125 C 15.894531 8.730469 16.125 8.648438 16.425781 8.589844 C 16.722656 8.53125 17.085938 8.492188 17.484375 8.5 C 17.683594 8.511719 17.890625 8.523438 18.074219 8.59375 C 18.128906 8.613281 18.1875 8.628906 18.238281 8.652344 C 18.285156 8.671875 18.335938 8.695312 18.382812 8.714844 C 18.480469 8.757812 18.582031 8.816406 18.683594 8.867188 C 19.136719 9.121094 19.546875 9.414062 19.925781 9.664062 L 20.066406 9.753906 L 20.144531 9.609375 C 20.269531 9.386719 20.464844 9.226562 20.65625 9.113281 C 20.707031 9.085938 20.753906 9.058594 20.800781 9.03125 C 20.847656 9.011719 20.894531 8.988281 20.941406 8.972656 C 21.03125 8.929688 21.125 8.90625 21.203125 8.878906 C 21.527344 8.777344 21.726562 8.738281 21.726562 8.703125 Z M 27.042969 9.382812 C 27.046875 9.363281 26.996094 9.339844 26.90625 9.308594 C 26.8125 9.273438 26.679688 9.226562 26.5 9.1875 C 26.453125 9.175781 26.40625 9.164062 26.351562 9.160156 C 26.328125 9.15625 26.300781 9.152344 26.269531 9.152344 C 26.242188 9.148438 26.207031 9.152344 26.175781 9.152344 C 26.09375 9.152344 26.070312 9.160156 25.988281 9.179688 C 25.925781 9.210938 25.855469 9.226562 25.792969 9.277344 C 25.664062 9.363281 25.574219 9.5 25.515625 9.625 C 25.480469 9.699219 25.445312 9.765625 25.414062 9.832031 C 25.3125 9.769531 25.210938 9.707031 25.101562 9.644531 C 24.804688 9.464844 24.507812 9.296875 24.222656 9.164062 C 23.929688 9.042969 23.65625 8.964844 23.417969 8.933594 C 23.296875 8.921875 23.1875 8.910156 23.097656 8.90625 C 23.003906 8.910156 22.925781 8.917969 22.859375 8.921875 C 22.730469 8.9375 22.660156 8.957031 22.660156 8.980469 C 22.65625 9.003906 22.726562 9.03125 22.855469 9.058594 C 22.917969 9.070312 22.996094 9.082031 23.085938 9.097656 C 23.171875 9.117188 23.265625 9.144531 23.371094 9.171875 C 23.585938 9.226562 23.828125 9.320312 24.089844 9.445312 C 24.347656 9.585938 24.625 9.753906 24.925781 9.9375 C 25.085938 10.035156 25.246094 10.121094 25.402344 10.210938 L 25.546875 10.292969 L 25.625 10.148438 C 25.777344 9.867188 25.824219 9.609375 25.96875 9.507812 C 25.996094 9.476562 26.042969 9.464844 26.082031 9.4375 C 26.105469 9.433594 26.183594 9.402344 26.214844 9.402344 C 26.230469 9.402344 26.25 9.398438 26.269531 9.398438 C 26.292969 9.398438 26.316406 9.398438 26.339844 9.398438 C 26.382812 9.394531 26.425781 9.398438 26.46875 9.398438 C 26.640625 9.40625 26.785156 9.425781 26.882812 9.421875 C 26.988281 9.417969 27.042969 9.402344 27.042969 9.382812 Z M 29.542969 12.070312 C 29.652344 12.484375 29.71875 12.894531 29.699219 13.347656 C 28.96875 13.460938 28.246094 13.640625 27.507812 13.734375 C 26.527344 13.863281 25.519531 13.703125 24.527344 13.789062 C 23.703125 13.859375 22.90625 14.183594 22.121094 14.429688 C 21.085938 14.765625 20.042969 14.816406 18.964844 14.800781 C 18.304688 14.792969 17.660156 14.863281 17.019531 14.949219 C 17.140625 14.875 17.25 14.800781 17.359375 14.730469 C 17.476562 14.644531 17.59375 14.578125 17.703125 14.507812 C 17.761719 14.476562 17.820312 14.445312 17.878906 14.414062 L 17.953125 14.378906 L 18.046875 14.34375 C 18.171875 14.296875 18.296875 14.25 18.40625 14.234375 C 18.464844 14.226562 18.519531 14.214844 18.574219 14.199219 C 18.628906 14.195312 18.6875 14.191406 18.746094 14.183594 C 18.859375 14.171875 18.96875 14.164062 19.074219 14.164062 C 19.183594 14.164062 19.285156 14.160156 19.386719 14.164062 C 19.785156 14.175781 20.113281 14.191406 20.339844 14.183594 C 20.566406 14.171875 20.691406 14.152344 20.691406 14.128906 C 20.691406 14.105469 20.566406 14.078125 20.347656 14.050781 C 20.125 14.015625 19.804688 13.964844 19.402344 13.925781 C 19.300781 13.914062 19.191406 13.910156 19.078125 13.902344 C 18.96875 13.894531 18.847656 13.894531 18.726562 13.902344 C 18.664062 13.90625 18.601562 13.90625 18.535156 13.914062 C 18.472656 13.921875 18.40625 13.933594 18.335938 13.945312 C 18.191406 13.964844 18.074219 14.003906 17.945312 14.046875 C 17.667969 14.136719 17.417969 14.289062 17.171875 14.453125 C 16.929688 14.613281 16.6875 14.777344 16.4375 14.839844 L 16.347656 14.867188 L 16.300781 14.878906 L 16.242188 14.878906 C 16.171875 14.886719 16.105469 14.890625 16.035156 14.894531 C 15.878906 14.890625 15.726562 14.890625 15.578125 14.898438 C 15.289062 14.910156 15.015625 14.925781 14.769531 14.898438 C 14.652344 14.882812 14.558594 14.871094 14.429688 14.820312 C 14.328125 14.785156 14.246094 14.730469 14.160156 14.65625 C 13.988281 14.511719 13.839844 14.34375 13.625 14.226562 C 13.574219 14.191406 13.53125 14.183594 13.484375 14.164062 C 13.417969 14.132812 13.375 14.136719 13.324219 14.125 C 13.226562 14.113281 13.132812 14.113281 13.046875 14.117188 C 12.878906 14.132812 12.742188 14.164062 12.628906 14.195312 C 12.410156 14.253906 12.296875 14.308594 12.300781 14.332031 C 12.304688 14.355469 12.433594 14.34375 12.652344 14.324219 C 12.765625 14.316406 12.898438 14.304688 13.050781 14.308594 C 13.128906 14.3125 13.207031 14.320312 13.285156 14.339844 C 13.320312 14.351562 13.375 14.355469 13.394531 14.371094 C 13.433594 14.394531 13.488281 14.414062 13.515625 14.4375 C 13.652344 14.527344 13.796875 14.699219 13.976562 14.871094 C 14.019531 14.914062 14.074219 14.953125 14.128906 14.996094 L 14.222656 15.054688 L 14.253906 15.070312 L 14.265625 15.074219 L 14.269531 15.074219 L 14.277344 15.082031 L 14.320312 15.097656 C 14.425781 15.148438 14.589844 15.1875 14.730469 15.207031 C 14.800781 15.21875 14.871094 15.226562 14.941406 15.230469 C 14.550781 15.269531 14.160156 15.292969 13.757812 15.289062 C 12.960938 15.28125 12.167969 15.257812 11.382812 15.414062 C 10.785156 15.535156 9.695312 15.921875 9.195312 15.382812 C 9.191406 15.351562 9.1875 15.320312 9.179688 15.285156 C 9.171875 15.214844 9.175781 15.132812 9.171875 15.050781 C 9.183594 14.96875 9.1875 14.882812 9.222656 14.796875 C 9.273438 14.617188 9.378906 14.433594 9.511719 14.238281 C 9.648438 14.046875 9.789062 13.847656 9.890625 13.648438 C 10 13.453125 10.054688 13.25 10.085938 13.082031 C 10.101562 12.902344 10.101562 12.765625 10.074219 12.675781 C 10.054688 12.589844 10.03125 12.539062 10.007812 12.539062 C 9.984375 12.539062 9.960938 12.589844 9.941406 12.675781 C 9.925781 12.773438 9.890625 12.890625 9.847656 13.027344 C 9.792969 13.164062 9.730469 13.328125 9.617188 13.496094 C 9.511719 13.664062 9.375 13.84375 9.234375 14.046875 C 9.140625 14.183594 9.058594 14.328125 8.996094 14.476562 C 8.78125 13.136719 8.648438 11.769531 8.3125 10.464844 C 8.117188 9.71875 8.195312 9.050781 8.136719 8.320312 C 8.144531 8.332031 8.148438 8.34375 8.152344 8.355469 C 8.246094 8.5 8.34375 8.632812 8.4375 8.757812 C 8.484375 8.816406 8.53125 8.875 8.578125 8.933594 C 8.617188 8.988281 8.65625 9.039062 8.691406 9.09375 C 8.828125 9.308594 8.890625 9.542969 8.949219 9.746094 C 9.007812 9.945312 9.0625 10.121094 9.113281 10.230469 C 9.164062 10.34375 9.203125 10.398438 9.226562 10.394531 C 9.25 10.386719 9.253906 10.316406 9.238281 10.199219 C 9.230469 10.074219 9.214844 9.914062 9.1875 9.699219 C 9.15625 9.484375 9.117188 9.210938 8.964844 8.933594 C 8.925781 8.871094 8.878906 8.796875 8.839844 8.734375 C 8.792969 8.675781 8.75 8.617188 8.703125 8.554688 C 8.613281 8.433594 8.523438 8.304688 8.445312 8.179688 C 8.402344 8.113281 8.371094 8.046875 8.339844 7.980469 C 8.300781 7.90625 8.261719 7.839844 8.226562 7.769531 C 8.15625 7.636719 8.0625 7.488281 7.980469 7.378906 C 7.929688 7.308594 7.882812 7.246094 7.835938 7.179688 C 7.71875 6.902344 7.597656 6.621094 7.523438 6.324219 C 8.292969 5.527344 9.925781 5.757812 10.945312 5.636719 C 11.367188 5.589844 11.792969 5.546875 12.21875 5.515625 C 12.070312 5.605469 11.933594 5.710938 11.816406 5.828125 C 11.816406 5.828125 11.816406 5.828125 11.816406 5.824219 L 11.804688 5.835938 C 11.808594 5.832031 11.8125 5.828125 11.816406 5.828125 C 11.726562 5.898438 11.671875 6.03125 11.65625 6.105469 C 11.648438 6.136719 11.636719 6.164062 11.636719 6.167969 C 11.636719 6.167969 11.644531 6.167969 11.632812 6.179688 L 11.613281 6.199219 L 11.605469 6.203125 C 11.554688 6.226562 11.503906 6.253906 11.449219 6.277344 C 11.390625 6.292969 11.335938 6.3125 11.277344 6.328125 C 11.039062 6.378906 10.796875 6.394531 10.601562 6.441406 C 10.410156 6.480469 10.234375 6.550781 10.152344 6.609375 C 10.066406 6.675781 10.023438 6.71875 10.035156 6.734375 C 10.042969 6.75 10.101562 6.742188 10.203125 6.710938 C 10.253906 6.6875 10.316406 6.683594 10.386719 6.671875 C 10.449219 6.65625 10.539062 6.652344 10.628906 6.648438 C 10.816406 6.632812 11.046875 6.640625 11.324219 6.605469 C 11.394531 6.59375 11.46875 6.574219 11.542969 6.558594 C 11.617188 6.535156 11.695312 6.5 11.773438 6.464844 L 11.773438 6.460938 L 11.800781 6.445312 L 11.804688 6.441406 L 11.816406 6.433594 L 11.835938 6.417969 C 11.851562 6.40625 11.886719 6.367188 11.902344 6.335938 C 11.9375 6.277344 11.953125 6.230469 11.964844 6.195312 C 11.984375 6.117188 11.996094 6.105469 12.027344 6.078125 L 12.039062 6.066406 C 12.203125 5.914062 12.398438 5.785156 12.632812 5.683594 L 12.765625 5.625 L 12.800781 5.613281 C 12.800781 5.609375 12.804688 5.609375 12.808594 5.609375 L 12.828125 5.601562 L 12.898438 5.578125 C 12.992188 5.546875 13.082031 5.515625 13.175781 5.488281 C 13.214844 5.476562 13.25 5.460938 13.292969 5.449219 C 14.308594 5.398438 15.328125 5.382812 16.34375 5.378906 C 17.03125 5.378906 17.753906 5.433594 18.4375 5.335938 C 19.367188 5.203125 20.226562 4.910156 21.171875 4.84375 C 22.089844 4.78125 23.007812 4.796875 23.929688 4.839844 C 23.679688 4.941406 23.433594 5.066406 23.191406 5.222656 C 23.035156 5.324219 22.886719 5.441406 22.757812 5.582031 C 22.660156 5.6875 22.566406 5.8125 22.511719 5.957031 C 21.761719 5.921875 21.074219 5.960938 20.617188 6.148438 C 20.371094 6.242188 20.199219 6.359375 20.09375 6.457031 C 19.992188 6.554688 19.949219 6.617188 19.964844 6.632812 C 19.976562 6.648438 20.042969 6.613281 20.160156 6.546875 C 20.273438 6.484375 20.449219 6.40625 20.679688 6.347656 C 21.140625 6.214844 21.824219 6.222656 22.625 6.292969 L 22.761719 6.304688 L 22.792969 6.15625 C 22.816406 6.042969 22.898438 5.925781 23.003906 5.8125 C 23.109375 5.699219 23.238281 5.601562 23.378906 5.507812 C 23.796875 5.234375 24.261719 5.042969 24.679688 4.925781 C 24.730469 4.910156 24.785156 4.902344 24.828125 4.890625 C 24.84375 4.890625 24.859375 4.886719 24.875 4.886719 C 25.539062 4.921875 26.199219 4.957031 26.859375 4.972656 C 27.195312 5.507812 27.347656 6.09375 27.53125 6.699219 C 27.507812 6.703125 27.488281 6.707031 27.46875 6.710938 C 27.285156 6.769531 27.144531 6.890625 27.042969 7.03125 C 26.996094 7.09375 26.960938 7.15625 26.929688 7.226562 C 26.742188 7.171875 26.558594 7.125 26.382812 7.101562 C 26.160156 7.066406 25.949219 7.070312 25.777344 7.097656 C 25.605469 7.128906 25.472656 7.171875 25.398438 7.21875 C 25.316406 7.257812 25.273438 7.292969 25.28125 7.316406 C 25.289062 7.363281 25.5 7.3125 25.792969 7.320312 C 25.949219 7.324219 26.128906 7.339844 26.332031 7.390625 C 26.53125 7.441406 26.75 7.511719 26.988281 7.597656 L 27.179688 7.671875 L 27.210938 7.457031 C 27.21875 7.394531 27.257812 7.304688 27.3125 7.234375 C 27.386719 7.136719 27.480469 7.0625 27.5625 7.03125 C 27.59375 7.023438 27.621094 7.023438 27.644531 7.023438 C 27.84375 7.558594 28.105469 8.074219 28.339844 8.59375 C 28.722656 9.421875 28.964844 10.304688 29.261719 11.167969 C 29.332031 11.378906 29.398438 11.578125 29.460938 11.777344 C 29.320312 11.769531 29.167969 11.777344 29 11.84375 C 28.972656 11.855469 28.925781 11.875 28.910156 11.886719 C 28.886719 11.902344 28.871094 11.910156 28.839844 11.933594 C 28.765625 11.984375 28.710938 12.066406 28.6875 12.132812 C 28.660156 12.199219 28.648438 12.253906 28.632812 12.296875 C 28.625 12.324219 28.617188 12.335938 28.613281 12.347656 C 28.546875 12.367188 28.449219 12.363281 28.296875 12.363281 C 28.136719 12.375 27.988281 12.414062 27.84375 12.464844 C 27.59375 12.554688 27.375 12.675781 27.171875 12.769531 C 27.117188 12.796875 27.074219 12.808594 27.03125 12.832031 C 26.988281 12.851562 26.921875 12.863281 26.871094 12.878906 C 26.804688 12.894531 26.699219 12.898438 26.601562 12.890625 C 26.40625 12.871094 26.1875 12.828125 25.984375 12.828125 L 25.96875 12.824219 L 25.953125 12.828125 L 25.933594 12.828125 L 25.902344 12.832031 L 25.832031 12.839844 C 25.785156 12.84375 25.738281 12.851562 25.691406 12.855469 C 25.601562 12.863281 25.519531 12.875 25.433594 12.886719 C 25.105469 12.917969 24.851562 12.980469 24.671875 13.019531 C 24.492188 13.058594 24.398438 13.09375 24.398438 13.121094 C 24.398438 13.144531 24.503906 13.152344 24.6875 13.152344 C 24.871094 13.152344 25.136719 13.125 25.457031 13.125 C 25.613281 13.121094 25.789062 13.113281 25.972656 13.109375 C 26.15625 13.125 26.339844 13.171875 26.570312 13.199219 C 26.683594 13.214844 26.804688 13.226562 26.957031 13.195312 C 27.011719 13.175781 27.0625 13.171875 27.125 13.144531 C 27.1875 13.121094 27.257812 13.097656 27.304688 13.074219 C 27.53125 12.976562 27.738281 12.863281 27.957031 12.785156 C 28.082031 12.742188 28.207031 12.707031 28.320312 12.703125 C 28.421875 12.695312 28.601562 12.722656 28.78125 12.636719 L 28.796875 12.628906 L 28.8125 12.617188 C 28.890625 12.546875 28.929688 12.457031 28.945312 12.394531 C 28.964844 12.335938 28.976562 12.28125 28.988281 12.25 C 29 12.210938 29.011719 12.207031 29.023438 12.191406 C 29.03125 12.183594 29.0625 12.167969 29.082031 12.152344 C 29.105469 12.132812 29.113281 12.136719 29.128906 12.125 C 29.242188 12.070312 29.394531 12.0625 29.542969 12.070312 " fill-opacity="1" fill-rule="nonzero"/></g><path fill="#000000" d="M 28.234375 19.492188 C 28.710938 19.570312 29.109375 19.632812 29.109375 19.730469 C 29.113281 19.820312 28.695312 19.910156 28.175781 19.828125 C 27.917969 19.78125 27.691406 19.699219 27.539062 19.601562 C 27.390625 19.507812 27.328125 19.417969 27.347656 19.378906 C 27.367188 19.332031 27.480469 19.347656 27.636719 19.382812 C 27.792969 19.410156 28 19.449219 28.234375 19.492188 " fill-opacity="1" fill-rule="nonzero"/><path fill="#000000" d="M 28.460938 18.863281 C 28.699219 18.910156 28.859375 19.003906 28.859375 19.101562 C 28.855469 19.191406 28.632812 19.246094 28.402344 19.199219 C 28.214844 19.160156 27.996094 19.097656 28 19 C 28.007812 18.910156 28.179688 18.8125 28.460938 18.863281 " fill-opacity="1" fill-rule="nonzero"/><path fill="#82442c" d="M 25.472656 21.132812 C 26.074219 21.109375 26.671875 21.125 27.257812 21.117188 C 26.949219 21.269531 26.640625 21.425781 26.332031 21.582031 C 26.132812 21.632812 25.878906 21.71875 25.585938 21.835938 C 25.230469 21.976562 24.808594 22.164062 24.351562 22.265625 C 24.292969 22.277344 24.234375 22.292969 24.175781 22.304688 C 24.117188 22.316406 24.046875 22.316406 23.984375 22.324219 C 23.855469 22.332031 23.722656 22.34375 23.585938 22.355469 C 23.300781 22.367188 23.019531 22.410156 22.730469 22.445312 C 22.589844 22.464844 22.449219 22.484375 22.3125 22.503906 C 22.171875 22.515625 22.03125 22.527344 21.894531 22.539062 C 21.617188 22.5625 21.351562 22.589844 21.097656 22.613281 C 20.59375 22.691406 20.140625 22.789062 19.773438 22.898438 C 19.035156 23.105469 18.59375 23.269531 18.601562 23.316406 C 18.613281 23.363281 19.082031 23.28125 19.828125 23.136719 C 20.199219 23.054688 20.644531 22.984375 21.136719 22.921875 C 21.382812 22.90625 21.648438 22.890625 21.917969 22.871094 C 22.054688 22.859375 22.195312 22.851562 22.335938 22.839844 C 22.480469 22.820312 22.625 22.804688 22.773438 22.785156 C 23.0625 22.75 23.34375 22.707031 23.605469 22.6875 C 23.675781 22.679688 23.746094 22.675781 23.816406 22.667969 C 23.859375 22.664062 23.90625 22.660156 23.949219 22.65625 C 22.789062 23.054688 21.566406 23.316406 20.425781 23.78125 C 19.757812 24.054688 19.066406 24.289062 18.410156 24.578125 C 18.105469 24.714844 17.808594 24.867188 17.511719 25.019531 C 17.375 24.859375 17.230469 24.679688 17.039062 24.496094 C 16.917969 24.378906 16.761719 24.28125 16.597656 24.203125 C 16.511719 24.167969 16.425781 24.136719 16.335938 24.105469 C 16.253906 24.085938 16.171875 24.0625 16.089844 24.042969 C 15.675781 23.953125 15.320312 23.835938 14.980469 23.707031 C 14.644531 23.578125 14.339844 23.457031 14.070312 23.371094 C 13.535156 23.195312 13.195312 23.171875 13.183594 23.214844 C 13.167969 23.265625 13.5 23.371094 13.984375 23.597656 C 14.234375 23.707031 14.523438 23.851562 14.863281 23.996094 C 15.195312 24.144531 15.597656 24.285156 16.003906 24.375 C 16.089844 24.394531 16.171875 24.414062 16.253906 24.4375 C 16.324219 24.460938 16.394531 24.484375 16.464844 24.511719 C 16.597656 24.574219 16.71875 24.640625 16.824219 24.734375 C 16.972656 24.867188 17.113281 25.015625 17.246094 25.15625 C 16.949219 25.304688 16.648438 25.449219 16.328125 25.5625 C 16.300781 25.554688 16.265625 25.546875 16.230469 25.546875 C 15.828125 25.066406 15.25 25.015625 14.640625 24.816406 C 14.160156 24.660156 13.75 24.300781 13.34375 24.007812 C 12.816406 23.632812 12.214844 23.363281 11.632812 23.089844 C 10.910156 22.75 10.21875 22.417969 9.5625 22.011719 C 12.886719 22.589844 16.367188 21.824219 19.710938 21.839844 C 21.667969 21.851562 23.523438 21.210938 25.472656 21.132812 " fill-opacity="1" fill-rule="nonzero"/><path fill="#000000" d="M 26.90625 9.308594 C 26.996094 9.339844 27.046875 9.363281 27.042969 9.382812 C 27.042969 9.402344 26.988281 9.417969 26.882812 9.421875 C 26.785156 9.425781 26.640625 9.40625 26.46875 9.398438 C 26.425781 9.398438 26.382812 9.394531 26.339844 9.398438 C 26.316406 9.398438 26.292969 9.398438 26.269531 9.398438 C 26.25 9.398438 26.230469 9.402344 26.214844 9.402344 C 26.183594 9.402344 26.105469 9.433594 26.082031 9.4375 C 26.042969 9.464844 25.996094 9.476562 25.96875 9.507812 C 25.824219 9.609375 25.777344 9.867188 25.625 10.148438 L 25.546875 10.292969 L 25.402344 10.210938 C 25.246094 10.121094 25.085938 10.035156 24.925781 9.9375 C 24.625 9.753906 24.347656 9.585938 24.089844 9.445312 C 23.828125 9.320312 23.585938 9.226562 23.371094 9.171875 C 23.265625 9.144531 23.171875 9.117188 23.085938 9.097656 C 22.996094 9.082031 22.917969 9.070312 22.855469 9.058594 C 22.726562 9.03125 22.65625 9.003906 22.660156 8.980469 C 22.660156 8.957031 22.730469 8.9375 22.859375 8.921875 C 22.925781 8.917969 23.003906 8.910156 23.097656 8.90625 C 23.1875 8.910156 23.296875 8.921875 23.417969 8.933594 C 23.65625 8.964844 23.929688 9.042969 24.222656 9.164062 C 24.507812 9.296875 24.804688 9.464844 25.101562 9.644531 C 25.210938 9.707031 25.3125 9.769531 25.414062 9.832031 C 25.445312 9.765625 25.480469 9.699219 25.515625 9.625 C 25.574219 9.5 25.664062 9.363281 25.792969 9.277344 C 25.855469 9.226562 25.925781 9.210938 25.988281 9.179688 C 26.070312 9.160156 26.09375 9.152344 26.175781 9.152344 C 26.207031 9.152344 26.242188 9.148438 26.269531 9.152344 C 26.300781 9.152344 26.328125 9.15625 26.351562 9.160156 C 26.40625 9.164062 26.453125 9.175781 26.5 9.1875 C 26.679688 9.226562 26.8125 9.273438 26.90625 9.308594 " fill-opacity="1" fill-rule="nonzero"/><path fill="#000000" d="M 21.160156 8.699219 C 21.519531 8.644531 21.722656 8.671875 21.726562 8.703125 C 21.726562 8.738281 21.527344 8.777344 21.203125 8.878906 C 21.125 8.90625 21.03125 8.929688 20.941406 8.972656 C 20.894531 8.988281 20.847656 9.011719 20.800781 9.03125 C 20.753906 9.058594 20.707031 9.085938 20.65625 9.113281 C 20.464844 9.226562 20.269531 9.386719 20.144531 9.609375 L 20.066406 9.753906 L 19.925781 9.664062 C 19.546875 9.414062 19.136719 9.121094 18.683594 8.867188 C 18.582031 8.816406 18.480469 8.757812 18.382812 8.714844 C 18.335938 8.695312 18.285156 8.671875 18.238281 8.652344 C 18.1875 8.628906 18.128906 8.613281 18.074219 8.59375 C 17.890625 8.523438 17.683594 8.511719 17.484375 8.5 C 17.085938 8.492188 16.722656 8.53125 16.425781 8.589844 C 16.125 8.648438 15.894531 8.730469 15.753906 8.8125 C 15.617188 8.886719 15.546875 8.976562 15.527344 8.957031 C 15.515625 8.941406 15.527344 8.847656 15.675781 8.707031 C 15.8125 8.574219 16.054688 8.445312 16.367188 8.355469 C 16.675781 8.261719 17.058594 8.195312 17.488281 8.1875 C 17.699219 8.1875 17.941406 8.191406 18.179688 8.277344 C 18.234375 8.296875 18.289062 8.308594 18.34375 8.332031 C 18.402344 8.355469 18.457031 8.378906 18.519531 8.40625 C 18.636719 8.453125 18.734375 8.511719 18.847656 8.570312 C 19.277344 8.8125 19.648438 9.078125 19.980469 9.320312 C 20.144531 9.117188 20.347656 8.980469 20.535156 8.886719 C 20.59375 8.863281 20.652344 8.835938 20.707031 8.8125 C 20.761719 8.792969 20.816406 8.777344 20.871094 8.761719 C 20.972656 8.726562 21.074219 8.714844 21.160156 8.699219 " fill-opacity="1" fill-rule="nonzero"/><path fill="#000000" d="M 20.398438 20.292969 L 20.394531 20.296875 L 20.390625 20.289062 C 20.390625 20.292969 20.394531 20.292969 20.398438 20.292969 " fill-opacity="1" fill-rule="nonzero"/><path fill="#000000" d="M 20.390625 20.289062 C 20.375 20.289062 20.390625 20.285156 20.382812 20.285156 L 20.390625 20.289062 " fill-opacity="1" fill-rule="nonzero"/><path fill="#000000" d="M 18.449219 31.136719 C 18.453125 31.164062 18.421875 31.183594 18.359375 31.207031 C 18.328125 31.21875 18.289062 31.230469 18.242188 31.238281 C 18.195312 31.242188 18.144531 31.246094 18.078125 31.246094 C 18.019531 31.246094 17.949219 31.222656 17.875 31.207031 C 17.839844 31.191406 17.800781 31.171875 17.761719 31.148438 L 17.707031 31.113281 L 17.65625 31.066406 C 17.582031 31 17.542969 30.914062 17.5 30.820312 C 17.484375 30.753906 17.464844 30.679688 17.453125 30.609375 C 17.34375 30.613281 17.234375 30.589844 17.152344 30.546875 C 17.011719 30.46875 16.925781 30.375 16.859375 30.296875 C 16.738281 30.144531 16.683594 30.035156 16.710938 30.003906 C 16.742188 29.96875 16.855469 30.023438 17.011719 30.128906 C 17.089844 30.179688 17.179688 30.238281 17.273438 30.269531 C 17.367188 30.296875 17.449219 30.292969 17.546875 30.253906 L 17.777344 30.15625 L 17.789062 30.414062 C 17.789062 30.449219 17.789062 30.484375 17.792969 30.523438 C 17.789062 30.597656 17.808594 30.652344 17.816406 30.71875 C 17.839844 30.765625 17.855469 30.820312 17.890625 30.851562 L 17.90625 30.882812 L 17.9375 30.902344 C 17.957031 30.917969 17.972656 30.9375 17.992188 30.949219 C 18.039062 30.96875 18.078125 30.996094 18.125 31.007812 C 18.171875 31.019531 18.210938 31.035156 18.25 31.050781 C 18.289062 31.058594 18.324219 31.066406 18.355469 31.078125 C 18.414062 31.09375 18.445312 31.113281 18.449219 31.136719 " fill-opacity="1" fill-rule="nonzero"/><path fill="#5b3e34" d="M 7.613281 24.503906 C 7.632812 24.453125 7.515625 24.371094 7.371094 24.210938 C 7.300781 24.128906 7.222656 24.027344 7.148438 23.910156 C 7.109375 23.851562 7.078125 23.789062 7.042969 23.722656 C 7.023438 23.6875 7.007812 23.644531 6.992188 23.609375 C 6.980469 23.574219 6.972656 23.542969 6.960938 23.511719 C 6.953125 23.476562 6.945312 23.441406 6.941406 23.40625 C 6.9375 23.386719 6.933594 23.363281 6.929688 23.332031 C 6.921875 23.300781 6.914062 23.265625 6.898438 23.238281 C 6.871094 23.175781 6.84375 23.144531 6.816406 23.101562 C 6.789062 23.070312 6.765625 23.039062 6.742188 23.007812 C 6.640625 22.878906 6.519531 22.777344 6.441406 22.710938 C 6.359375 22.636719 6.3125 22.582031 6.273438 22.53125 C 6.230469 22.476562 6.199219 22.449219 6.175781 22.457031 C 6.152344 22.464844 6.144531 22.503906 6.144531 22.574219 C 6.152344 22.648438 6.1875 22.761719 6.257812 22.867188 C 6.332031 22.976562 6.414062 23.066406 6.488281 23.191406 C 6.507812 23.222656 6.527344 23.257812 6.550781 23.289062 C 6.566406 23.316406 6.589844 23.351562 6.59375 23.367188 C 6.597656 23.378906 6.597656 23.386719 6.597656 23.390625 L 6.605469 23.445312 C 6.609375 23.496094 6.621094 23.546875 6.632812 23.601562 L 6.65625 23.671875 L 6.667969 23.703125 L 6.671875 23.722656 L 6.679688 23.746094 L 6.683594 23.753906 C 6.707031 23.792969 6.722656 23.828125 6.742188 23.867188 C 6.789062 23.949219 6.839844 24.027344 6.890625 24.09375 C 6.996094 24.222656 7.109375 24.328125 7.21875 24.394531 C 7.433594 24.53125 7.597656 24.542969 7.613281 24.503906 Z M 14.574219 28.289062 C 14.59375 28.203125 14.585938 28.078125 14.550781 27.925781 C 14.503906 27.773438 14.417969 27.597656 14.289062 27.445312 C 14.203125 27.335938 14.109375 27.226562 14.015625 27.117188 C 14.035156 27.105469 14.050781 27.089844 14.066406 27.074219 C 14.128906 27.027344 14.175781 26.957031 14.222656 26.890625 C 14.253906 26.808594 14.289062 26.734375 14.289062 26.652344 C 14.300781 26.492188 14.257812 26.34375 14.195312 26.238281 C 14.070312 26.011719 13.902344 25.871094 13.753906 25.777344 C 13.601562 25.683594 13.464844 25.636719 13.363281 25.617188 C 13.269531 25.605469 13.214844 25.613281 13.207031 25.636719 C 13.199219 25.660156 13.246094 25.695312 13.324219 25.742188 C 13.394531 25.792969 13.496094 25.867188 13.609375 25.96875 C 13.71875 26.070312 13.84375 26.210938 13.914062 26.375 C 13.953125 26.457031 13.96875 26.542969 13.957031 26.617188 C 13.957031 26.65625 13.9375 26.6875 13.925781 26.726562 C 13.898438 26.757812 13.882812 26.792969 13.839844 26.820312 C 13.804688 26.863281 13.738281 26.890625 13.6875 26.921875 L 13.515625 27.042969 L 13.628906 27.175781 C 13.777344 27.363281 13.9375 27.511719 14.0625 27.640625 C 14.191406 27.769531 14.277344 27.894531 14.34375 28.003906 C 14.394531 28.121094 14.433594 28.222656 14.453125 28.296875 C 14.472656 28.367188 14.496094 28.414062 14.519531 28.414062 C 14.539062 28.414062 14.558594 28.371094 14.574219 28.289062 Z M 14.601562 31.363281 C 14.730469 31.316406 14.804688 31.261719 14.796875 31.214844 C 14.789062 31.167969 14.699219 31.136719 14.574219 31.125 C 14.453125 31.105469 14.289062 31.101562 14.152344 31.042969 C 14.015625 30.988281 13.878906 30.882812 13.769531 30.820312 C 13.65625 30.753906 13.566406 30.726562 13.535156 30.761719 C 13.503906 30.792969 13.527344 30.878906 13.601562 30.992188 C 13.679688 31.101562 13.796875 31.265625 14.027344 31.359375 C 14.085938 31.378906 14.144531 31.398438 14.199219 31.40625 C 14.253906 31.410156 14.304688 31.410156 14.355469 31.414062 C 14.453125 31.402344 14.535156 31.386719 14.601562 31.363281 Z M 14.871094 30.683594 C 14.875 30.585938 14.660156 30.5 14.402344 30.414062 C 14.167969 30.328125 13.90625 30.242188 13.863281 30.332031 C 13.824219 30.410156 13.960938 30.609375 14.289062 30.734375 C 14.597656 30.835938 14.871094 30.773438 14.871094 30.683594 Z M 15.8125 25.992188 C 15.832031 26.023438 15.855469 26.046875 15.878906 26.066406 C 15.742188 27.117188 15.316406 27.925781 15.464844 29.054688 C 15.621094 30.222656 15.324219 31.222656 14.917969 32.289062 C 13.953125 31.933594 13.34375 31.050781 12.554688 30.402344 C 11.605469 29.621094 11.0625 28.855469 10.394531 27.835938 C 9.894531 27.074219 9.109375 26.542969 8.378906 26.015625 C 7.261719 25.210938 6.507812 24.144531 5.53125 23.199219 C 5.695312 21.976562 5.851562 20.71875 5.925781 19.476562 C 7.238281 20.96875 8.609375 22.316406 10.441406 23.203125 C 11.417969 23.675781 12.410156 24.082031 13.300781 24.71875 C 13.605469 24.941406 13.902344 25.164062 14.253906 25.308594 C 14.699219 25.488281 15.53125 25.5625 15.8125 25.992188 " fill-opacity="1" fill-rule="nonzero"/><path fill="#000000" d="M 14.402344 30.414062 C 14.660156 30.5 14.875 30.585938 14.871094 30.683594 C 14.871094 30.773438 14.597656 30.835938 14.289062 30.734375 C 13.960938 30.609375 13.824219 30.410156 13.863281 30.332031 C 13.90625 30.242188 14.167969 30.328125 14.402344 30.414062 " fill-opacity="1" fill-rule="nonzero"/><path fill="#000000" d="M 14.796875 31.214844 C 14.804688 31.261719 14.730469 31.316406 14.601562 31.363281 C 14.535156 31.386719 14.453125 31.402344 14.355469 31.414062 C 14.304688 31.410156 14.253906 31.410156 14.199219 31.40625 C 14.144531 31.398438 14.085938 31.378906 14.027344 31.359375 C 13.796875 31.265625 13.679688 31.101562 13.601562 30.992188 C 13.527344 30.878906 13.503906 30.792969 13.535156 30.761719 C 13.566406 30.726562 13.65625 30.753906 13.769531 30.820312 C 13.878906 30.882812 14.015625 30.988281 14.152344 31.042969 C 14.289062 31.101562 14.453125 31.105469 14.574219 31.125 C 14.699219 31.136719 14.789062 31.167969 14.796875 31.214844 " fill-opacity="1" fill-rule="nonzero"/><path fill="#000000" d="M 14.550781 27.925781 C 14.585938 28.078125 14.59375 28.203125 14.574219 28.289062 C 14.558594 28.371094 14.539062 28.414062 14.519531 28.414062 C 14.496094 28.414062 14.472656 28.367188 14.453125 28.296875 C 14.433594 28.222656 14.394531 28.121094 14.34375 28.003906 C 14.277344 27.894531 14.191406 27.769531 14.0625 27.640625 C 13.9375 27.511719 13.777344 27.363281 13.628906 27.175781 L 13.515625 27.042969 L 13.6875 26.921875 C 13.738281 26.890625 13.804688 26.863281 13.839844 26.820312 C 13.882812 26.792969 13.898438 26.757812 13.925781 26.726562 C 13.9375 26.6875 13.957031 26.65625 13.957031 26.617188 C 13.96875 26.542969 13.953125 26.457031 13.914062 26.375 C 13.84375 26.210938 13.71875 26.070312 13.609375 25.96875 C 13.496094 25.867188 13.394531 25.792969 13.324219 25.742188 C 13.246094 25.695312 13.199219 25.660156 13.207031 25.636719 C 13.214844 25.613281 13.269531 25.605469 13.363281 25.617188 C 13.464844 25.636719 13.601562 25.683594 13.753906 25.777344 C 13.902344 25.871094 14.070312 26.011719 14.195312 26.238281 C 14.257812 26.34375 14.300781 26.492188 14.289062 26.652344 C 14.289062 26.734375 14.253906 26.808594 14.222656 26.890625 C 14.175781 26.957031 14.128906 27.027344 14.066406 27.074219 C 14.050781 27.089844 14.035156 27.105469 14.015625 27.117188 C 14.109375 27.226562 14.203125 27.335938 14.289062 27.445312 C 14.417969 27.597656 14.503906 27.773438 14.550781 27.925781 " fill-opacity="1" fill-rule="nonzero"/><path fill="#000000" d="M 13.839844 9.613281 C 13.84375 9.660156 13.601562 9.710938 13.226562 9.78125 C 13.042969 9.816406 12.820312 9.863281 12.613281 9.957031 C 12.402344 10.050781 12.207031 10.203125 12.113281 10.429688 L 12.082031 10.5 L 12.023438 10.636719 L 11.890625 10.609375 C 11.339844 10.507812 10.84375 10.453125 10.480469 10.421875 C 10.113281 10.390625 9.882812 10.367188 9.878906 10.320312 C 9.878906 10.273438 10.105469 10.214844 10.476562 10.183594 C 10.828125 10.15625 11.300781 10.171875 11.820312 10.253906 C 11.960938 9.953125 12.242188 9.753906 12.492188 9.667969 C 12.757812 9.566406 13 9.550781 13.199219 9.539062 C 13.597656 9.53125 13.835938 9.566406 13.839844 9.613281 " fill-opacity="1" fill-rule="nonzero"/><path fill="#000000" d="M 12.554688 20.867188 C 12.558594 20.957031 12.070312 21.050781 11.488281 20.890625 C 11.203125 20.808594 10.960938 20.679688 10.800781 20.554688 C 10.652344 20.429688 10.585938 20.324219 10.613281 20.285156 C 10.636719 20.246094 10.757812 20.28125 10.929688 20.347656 C 11.09375 20.40625 11.324219 20.488281 11.582031 20.566406 C 12.101562 20.707031 12.550781 20.769531 12.554688 20.867188 " fill-opacity="1" fill-rule="nonzero"/><path fill="#000000" d="M 12.375 20.160156 C 12.382812 20.25 12.105469 20.335938 11.757812 20.265625 C 11.398438 20.175781 11.210938 19.992188 11.242188 19.910156 C 11.273438 19.8125 11.558594 19.871094 11.832031 19.933594 C 12.121094 19.996094 12.375 20.0625 12.375 20.160156 " fill-opacity="1" fill-rule="nonzero"/><path fill="#000000" d="M 11.816406 5.824219 C 11.816406 5.828125 11.816406 5.828125 11.816406 5.828125 C 11.8125 5.828125 11.808594 5.832031 11.804688 5.835938 L 11.816406 5.824219 " fill-opacity="1" fill-rule="nonzero"/><path fill="#5b3e34" d="M 8.621094 15.625 C 8.671875 15.695312 8.726562 15.757812 8.785156 15.8125 C 8.503906 17.390625 8.792969 18.996094 8.636719 20.574219 C 8.554688 20.300781 8.515625 20.003906 8.460938 19.742188 C 8.351562 19.246094 8.105469 18.769531 7.953125 18.285156 C 7.578125 17.058594 7.613281 15.550781 7.523438 14.277344 C 7.378906 12.097656 6.886719 9.605469 7.253906 7.382812 C 7.378906 7.679688 7.496094 7.984375 7.539062 8.308594 C 7.625 8.980469 7.46875 9.609375 7.632812 10.285156 C 8.050781 11.984375 8.214844 13.734375 8.554688 15.457031 C 8.558594 15.464844 8.5625 15.472656 8.5625 15.480469 C 8.566406 15.527344 8.582031 15.574219 8.621094 15.625 " fill-opacity="1" fill-rule="nonzero"/><path fill="#82442c" d="M 7.578125 19.070312 C 7.78125 19.628906 7.867188 20.324219 8.101562 20.910156 C 7.375 20.25 6.730469 19.496094 6.09375 18.753906 C 6.472656 18.445312 6.820312 18.105469 7.273438 17.917969 C 7.351562 18.308594 7.445312 18.695312 7.578125 19.070312 " fill-opacity="1" fill-rule="nonzero"/><path fill="#000000" d="M 7.371094 24.210938 C 7.515625 24.371094 7.632812 24.453125 7.613281 24.503906 C 7.597656 24.542969 7.433594 24.53125 7.21875 24.394531 C 7.109375 24.328125 6.996094 24.222656 6.890625 24.09375 C 6.839844 24.027344 6.789062 23.949219 6.742188 23.867188 C 6.722656 23.828125 6.707031 23.792969 6.683594 23.753906 L 6.679688 23.746094 L 6.671875 23.722656 L 6.667969 23.703125 L 6.65625 23.671875 L 6.632812 23.601562 C 6.621094 23.546875 6.609375 23.496094 6.605469 23.445312 L 6.597656 23.390625 C 6.597656 23.386719 6.597656 23.378906 6.59375 23.367188 C 6.589844 23.351562 6.566406 23.316406 6.550781 23.289062 C 6.527344 23.257812 6.507812 23.222656 6.488281 23.191406 C 6.414062 23.066406 6.332031 22.976562 6.257812 22.867188 C 6.1875 22.761719 6.152344 22.648438 6.144531 22.574219 C 6.144531 22.503906 6.152344 22.464844 6.175781 22.457031 C 6.199219 22.449219 6.230469 22.476562 6.273438 22.53125 C 6.3125 22.582031 6.359375 22.636719 6.441406 22.710938 C 6.519531 22.777344 6.640625 22.878906 6.742188 23.007812 C 6.765625 23.039062 6.789062 23.070312 6.816406 23.101562 C 6.84375 23.144531 6.871094 23.175781 6.898438 23.238281 C 6.914062 23.265625 6.921875 23.300781 6.929688 23.332031 C 6.933594 23.363281 6.9375 23.386719 6.941406 23.40625 C 6.945312 23.441406 6.953125 23.476562 6.960938 23.511719 C 6.972656 23.542969 6.980469 23.574219 6.992188 23.609375 C 7.007812 23.644531 7.023438 23.6875 7.042969 23.722656 C 7.078125 23.789062 7.109375 23.851562 7.148438 23.910156 C 7.222656 24.027344 7.300781 24.128906 7.371094 24.210938 " fill-opacity="1" fill-rule="nonzero"/></svg>